/* XPM */
static const char *item[] = {
/* columns rows colors chars-per-pixel */
"64 64 239 2 ",
"   c #2D0C02",
".  c #2C0A06",
"X  c #330C03",
"o  c #2C130C",
"O  c #3B1404",
"+  c #34130A",
"@  c #3B140A",
"#  c #381507",
"$  c #3E1C12",
"%  c #4B1B04",
"&  c #451D0C",
"*  c #4C1C0D",
"=  c #471609",
"-  c #521B0B",
";  c #421E13",
":  c #4B1E14",
">  c #52160F",
",  c #621C11",
"<  c #4C240C",
"1  c #47230D",
"2  c #572A0E",
"3  c #452314",
"4  c #4B2413",
"5  c #4D2914",
"6  c #45251A",
"7  c #4C2A1C",
"8  c #4A2618",
"9  c #5C2C15",
"0  c #532B1C",
"q  c #592C1D",
"w  c #532614",
"e  c #5A331E",
"r  c #593318",
"t  c #5D3204",
"y  c #692E0C",
"u  c #662918",
"i  c #772C1C",
"p  c #63391B",
"a  c #6A3B1D",
"s  c #663418",
"d  c #753C1D",
"f  c #723B12",
"g  c #562C21",
"h  c #493227",
"j  c #533324",
"k  c #55392A",
"l  c #5D3C2A",
"z  c #5C3524",
"x  c #4F2F21",
"c  c #632D20",
"v  c #623423",
"b  c #623A23",
"n  c #643B2A",
"m  c #6C3F2B",
"M  c #6A3B25",
"N  c #773B27",
"B  c #6C431A",
"V  c #76451E",
"C  c #7A4B1B",
"Z  c #744717",
"A  c #77551A",
"S  c #755218",
"D  c #68422B",
"F  c #734423",
"G  c #7B4B23",
"H  c #72442B",
"J  c #784929",
"K  c #6E4430",
"L  c #6F4C33",
"P  c #664836",
"I  c #794D33",
"U  c #754835",
"Y  c #73533C",
"T  c #7C5535",
"R  c #755531",
"E  c #795B46",
"W  c #684B40",
"Q  c #7E624B",
"!  c #7E6050",
"~  c #823B1F",
"^  c #894518",
"/  c #92451F",
"(  c #85472B",
")  c #93442A",
"_  c #89562B",
"`  c #975228",
"'  c #894A32",
"]  c #845638",
"[  c #965D3B",
"{  c #984E32",
"}  c #A85829",
"|  c #A85C36",
" . c #8C6537",
".. c #986E36",
"X. c #BA6B37",
"o. c #B46832",
"O. c #C56519",
"+. c #C9671A",
"@. c #D16D16",
"#. c #DC7A2C",
"$. c #D9772A",
"%. c #C9783E",
"&. c #D97838",
"*. c #D26F28",
"=. c #E17C29",
"-. c #E27C36",
";. c #885D46",
":. c #955D48",
">. c #A85C41",
",. c #87634B",
"<. c #986848",
"1. c #96724C",
"2. c #836454",
"3. c #8C6951",
"4. c #876755",
"5. c #956A54",
"6. c #94745B",
"7. c #99755B",
"8. c #9A795D",
"9. c #997654",
"0. c #8F745B",
"q. c #A66745",
"w. c #A1764C",
"e. c #A4794B",
"r. c #A47845",
"t. c #BB7443",
"y. c #BC764E",
"u. c #A27C5A",
"i. c #A97952",
"p. c #B87D58",
"a. c #A06750",
"s. c #8C7261",
"d. c #987A63",
"f. c #A97A66",
"g. c #B47D69",
"h. c #C67A48",
"j. c #C67E56",
"k. c #D27F45",
"l. c #DD833B",
"z. c #E6812C",
"x. c #E68134",
"c. c #E98436",
"v. c #E4833B",
"b. c #EB8639",
"n. c #ED8A3B",
"m. c #E88938",
"M. c #F28D3C",
"N. c #F08B36",
"B. c #F6913E",
"V. c #F8933F",
"C. c #AE814C",
"Z. c #B28859",
"A. c #A78655",
"S. c #A98669",
"D. c #A98667",
"F. c #B48969",
"G. c #BD9465",
"H. c #BA946D",
"J. c #AD8A74",
"K. c #B18B70",
"L. c #B59374",
"P. c #BD9C7B",
"I. c #BA9878",
"U. c #AF9173",
"Y. c #CE8147",
"T. c #D98649",
"R. c #C9855C",
"E. c #D78956",
"W. c #C2965D",
"Q. c #DA925B",
"!. c #E58A45",
"~. c #EE8D41",
"^. c #E68D4B",
"/. c #E68947",
"(. c #F08E41",
"). c #F08B48",
"_. c #EF9245",
"`. c #E5904D",
"'. c #ED924B",
"]. c #EE984C",
"[. c #F49344",
"{. c #F99542",
"}. c #FA9846",
"|. c #F49649",
" X c #F89748",
".X c #F7994D",
"XX c #F6994C",
"oX c #FA9A4A",
"OX c #FA9D4E",
"+X c #FD9E4E",
"@X c #FB9B4C",
"#X c #F79847",
"$X c #E18E57",
"%X c #EC9554",
"&X c #E3945C",
"*X c #E99759",
"=X c #F59B54",
"-X c #FA9E51",
";X c #FB9E51",
":X c #F29C5C",
">X c #F49656",
",X c #F38E51",
"<X c #FAA14E",
"1X c #F7A24F",
"2X c #EEA25C",
"3X c #F6A354",
"4X c #FDA255",
"5X c #FDA255",
"6X c #FBA955",
"7X c #F6A15B",
"8X c #FEA559",
"9X c #FDA95C",
"0X c #C6896A",
"qX c #DA8D62",
"wX c #C59A64",
"eX c #C59C67",
"rX c #D4916E",
"tX c #DA9B6A",
"yX c #C49973",
"uX c #D49A75",
"iX c #E79965",
"pX c #CDA36A",
"aX c #C4A17C",
"sX c #C8A379",
"dX c #DDA37A",
"fX c #D0A468",
"gX c #E9A166",
"hX c #FCAB62",
"jX c #F6A769",
"kX c #FCB162",
"lX c #F9B86F",
"zX c #E8A475",
"xX c #F5AB78",
"cX c #FAB079",
"vX c #CC9983",
"bX c #C6A381",
"nX c #C8A786",
"mX c #E6AB83",
"MX c #ECB189",
/* pixels */
"|.[.{.OX9X5X{.+X4XoXM.c.~.5X+X{.V.V.V.}.5X-Xn.~.4X8X8XoX{.;X4X}.}.4XXXb.n.{.+X4X}.V.V.{.{.V.{.<X6XoX{.5X|.*.+.-.v.&.!.|.|.|.|.|.",
"x.m.#XOX-XoX{.@XOX[.M.n.[.4X5XoX{.V.V.{.oX|.[.[.XX-X;X}.{.oXOX{.{.XX#Xn.M.{.oX+XoX}.B.M.V.{.}.<X3X}.{.+X_.+.+.x.~.!.!.!.~.[.|.|.",
"@.#.XX.Xn.M.{.{.{.n.n.M.}.4X8X4XoX{.V.B.n.(..XXXn.M.{.{.{.{.{.n.b.m.n.B.V.{.{.}.3X1Xn.n.B.oX5XOX}.{.{.}.m.O.+.b.oX-X/.&.b.{.[.|.",
"#.m.oX Xn.z.z.N.B.b.n.#X+X+X.XXXoXoX{.M.n.[.4XXXb.c.M.B.{.}.}.M.n.n.M.V.B.M.[.oXXX_.m.n.}.+X+X#XM.[.oX}.N.*.$.{.<X+X~.&.~.XXm.#.",
"9X5X}.{.B.=.@.z.B.n.n.-X;X}.M.n.|.5X[.b.M.}.5XXXn.c.b.M.{.+X5X}.B.B.V.{.M.n.|.-X[.b.c.~.-X;X{.M.n.|.3XoXM.c.n.OX+X{.n.b.=X3X#.O.",
"hX5XM.{.oXn.=.x.N.N.B.oX}.M.c.c.|.4X#XM.B.{.[.|.|.~.c.c.M.OX4X}.B.M.{.oX.X|.oX.X|.[.M.#X4XOXM.(.|.OXXX[.N.M.{.oX#XN.c.m.-X5Xm.$.",
"8X.Xn.[.-XoXB.n.b.M.{.{.{.n.c.b.|.5XoX{.{.{.n.[.-X|.n.c.n..X4X}.M.n.[.-X4X4XoX{.+X;X}.}.4XXXn.[.-XoXB.n.b.M.{.{.B.n.c.b.|.5X}.B.",
"8X-XB.M.[.[.{.n.c.M.}.+XOXXX~.b.M.oX{.{.+XOXXXXXoX.XXX[.B.OX5X[.M.|.|.[.#XoX{.{.}.}.M.[.4XOXM.M.[.{.B.b.c.M.}.+XOXXX~.b.{.@X}.{.",
"4X;X}.M.b.N.B.M.n.B.}.;X4X4X|.n.M.{.B.{..X5X4X+X{.oX5XoX{.;X-X(.n..X|.b.N.{.}.{.{.M.n.(.-X+X}.M.b.M.B.n.n.B.}.5X4X4X|.n.n.n.M.B.",
"}.oX;XoXM.n.n.[..X}.{.}.}.oXoX.X|.[.n.n.n.[.#X}.V.{.}.M.n..X4X#XM.(.n.b.[.;X4XOX(.n.M.B.}.+X;XoXM.n.n.|..X{.{.}.}.oXOX|.#.+.=.n.",
"}.oX5X+X}.[.~..X4X}.{.}.{.{.oX;XXX[.n.c.v.n.}.oXoX{.M.n.n.|.OXoX{.b.x.c.[.;X4X-X[.n.M.B.{.oX5X+X}.(.(.-X4X}.{.}.{.{.oXOX#.+.$.c.",
"6X<X}.@X5X5X-X4X4X}.}.3X<X{.{.}.|.[.n.b.-.!.5X9X9XXXn.N.M.n.(.OX.Xn.x.c.M.}.}.}.OXXXn.M.OX+X}.+X5X-X-X8X4X}.}.;X+X{.{.}.M.c.c.c.",
"9X5X[.{.-X4X8X8X4X}.[.XX|.~.[.oX7XiX%.} } | X.t.t.T.*X=XoX#X[.XX|.M.n.n.M.V.{.oX4X5XXXXX4X;X{.}.;X5X;X.XXX{.}.XX X{.V.V.{.{.M.n.",
"8XOXn.N.{.+X8X8X4X}.B.n.v.T.'.9XxXvX] % % * & & - :.mXcX9X9X5X_.n.M.B.B.B.{.oX4X4X9XkXkX8X+X{.{.{.{.{.M.n.B.B.n.M.B.{.{.{.{.B.B.",
"|.|.[.{.{.+X8X8X4X+X}.B.(.'.=X7XR.4.n < 3 3 $ @ @ n 5.Q.8X8X-Xn.c.N.M.V.V.{.oXOXXXXX6X6X<X+XoX}.{.}.oX#X(.M.M.[.{.{.}.oX}.{.}.@X",
"b.(.-X+X{.oX4X8X4X8X-X[.[.=X=X!.` 4 s G L L L m r & * ` !.|.'.n.c.b.N.B.{.{.{.{.n.n.{.{.{.oX5XoX{.oX4X8X-Xn.~.-X+X{.oX3XoX{.+X4X",
"N.#X4X;X{.}.oX#X|.:XT.} / _ _ ^ y 2 _ r.w.9.w. .B 2 % y ` y.Q.`.~.|.#XV.V.V.{.[.~.~.'.'.'.'.^.~.M.[.+X4X4XXX|.oX+X+XXX[.n.M.-X8X",
"B.}.-XOX{.{.{.M.~.%Xh.i = X   # 9 _ C.wXwXwXwXC._ Z t % * 3.yX&X=X9X4X}.{.{.#X|.|.^.Y.E.$X^.T.v.b.M.{.+X4X4X+X}.oX-X#Xb.c.n.XX4X",
"n.n.(.|.+X}.{.}.|.$XE.y.' @ o j T C.G.yXpXpXeXW.C. .Z % = 5.dX:X=X7X9X9X4X5X5X-X|.%.) { Q.hX2X].~.M.V.}.oX@X+X+XoX[.M.M.#X|.[.(.",
"b.b.n.[.-XoX{.+X-XT.E.jXj.a 0 P 1.eXaXI.Z.Z.wXeXeXe.G * = ;.R.Y.%.h.Y.Q.2XjXjX:Xk.} i N y.gXlXhX%X|.}.}.{.B.}.4XXXb.n.{.+X4X[.c.",
"M.{.XX|.~.M.{.}.}.n.~.=X$Xy.J 4 ;.P.nXK.L D D.aXyXu.I w O 4 e 9 9 9 9 d i.MXMXyX] a ;.;.H <.mXMXuXgX8X4X.XM.[.4XXXb.c.n..X4X#XM.",
"}.oX5XXX~.M.V.B.M.b.b.~.%XiXq.N Y s.d.3.l P D.bXP.6.n 4 O X           # U K.J.4.7 4 u.u.e m g.g.f.E.7X5XXX(.[.OX|.n.c.n.|.+X}.V.",
"4X+X}.oX-XoX{.N.c.c.b.~.%XqXqXR.] 6 $ j ,.S.I.aXP.,.; @ 5 5 4 4 4 4 4 4 8 7 0 4 X 4 e.Z.I z q , u | !.~.(.XXOX}.{.B.B.B.{.{.{.V.",
";XoXM.|.4X.XM.n.n.~.[.XX%X&XjXjXq.4 . $ 6.bXbXK.5.n @ < p p p b b b b p < O O O   &  .w.] v : : c ( } h.`.7X4X}.V.V.}.oXoX}.{.V.",
"{.B.n.[.4X|.n.M.[.OX4X4X4X7X9XhXR.] 3 ; 6.aXP.5.e 1 5 p V V V H K K H V f y 2 5 O & M I G F P E 4.b 9 1.uXjX4X{.V.{.oX4X4X5X}.V.",
"oXoX[.|.OX|.[.oXOXoXXXOX5X9X9XhXgXp.v 3 6.K.3.Y L D b F C C Z p v K J C Z Z B b q 9 a V C T Q E P ; : 5.dXjXXXM.{.oXoX|..XoX{.V.",
"4X4X4XOX{.oX4X4X-X~.n.B.OX9XhXhXxXuXH 4 7.8.7 l D.8.I J C A B < 4 n J A A S F K K H G G C ] 0.P + . : a.tX%X[.n.[.-X|.n.M.{.{.{.",
"[.|.oX}.{.}.oX|.(.b.b.#X+XOX-X3XzXyXm 4 7.8.; j F.G.w. .A C Z e 7 8 D 1. .S r 0 l Y 1.1.R Q 0.P . X 4 n [ T.oXM.M.[.n.b.[.+X+X+X",
"c.n.{.{.{.{.{.M.b.b.(.-X5X{.{.'.tXF.n 4 7.8.6 e Z.pXW...A C G L k + l S.A.A < + k Q D.d.Q 2.d.P # 1 5 + 9 Y.4X}.M.b.c.n.XX4X4X4X",
"x.n..X@X{.V.{.#XXXXX-X8X5X{.M.n.Q.F.v : d.d.6 e Z.fXW...C C G Y k o l G.eX9.j + E d.Y Y 8.U.L.,.z l l + w k.4X|.n.c.b.B.OX4X|.~.",
"n.[.OX.X}.{.{.oX5X4X4X-XOX}.M.b.E.R.F 9 ,.2.$ e Z.pXwXe._ V B D k 6 D w.H.L.E x ! 4.6 8 3.S.f.;.M n n w d T.5XXX_.n.N.{.+X4X[.n.",
"-X|.(.#XOX#Xn.{.}.}.#X(.|.5X|.b.^.E.o.^ s : X b F.sXI.H.u.D = # j 2.E z ,.I.J.3.P 6 # # 6 0 q : = = u ' t.l.[.-X.XB.n.n.XX4X-X-X",
"8XXXb.[.4X|.b.M.V.V.B.n.[.5XXXb.!.`.l.o.d q u U 5.S.P.bXL.;.0 $ j 2.W o h s.L.L.E 8 # @ x z q z v u ~ t.&X!.[.OX+XoX{.(..X8X-X-X",
"8XXXm.[.4X|.b.M.V.{.V.B.{.}.M.b.!.`.^.T.Z.D.F.<.e T G.sXP.K.8.W k 6 + . o h 4.P.L.3.3 g f.I.S.F.0Xj.h.E.*X=XOX}.oX5X4X-X4X4X[.n.",
"+XoX[.|.OX#XN.M.B.M.M.M.M.M.M.(._.'.|.%XtXtXiXh.( ( [ <.,.3.;.K b M N F a b U ,.3.;.F [ zXMXtXtXzXiX:X*X>X9X5X{.}.+X4X8X4XOX[.~.",
"{.oX-XOX{.{.B.{.B.n.b.b.c.b.[.-X.X[.{.#X|.'.~.^.iX>., > * * * - N j.iX*XT.X.N * = u o.'.hX7X!.v.~.=X9X.X#X5X3X}.V.{.+X4XoX}.OX4X",
"oXoX|.#XV.M.M.#XoX|.(.b.x.c.[.4X+X{.}.oX|.[.n.=XcXR.) N N U ( ( | qXjXkX7X!.| U m ' T.;X8X>Xb.-.c.[.XX{.}.3X4X+X}.V.{.|.oX+X4X8X",
"8X.Xn.N.B.M.n.|.4X4X.Xn.c.c.[.4XoX{.+X4XXX_._.:XcXjX$XR.0XrXrXqXE.E.*X9X5X'.&XrX0XR.`.XX>X,Xb.c.c.b.n.M.}.5X8X4X+X{.M.n.|.4X4X4X",
"8X-XM.M.{.#X|.oXoX|.|.|.[.M.XX4X|.M..X5X[.n.n.~.>X>X=X:XiXjXjX%X^.^.'.|.#X#X=X:XgXgX|.[.).).M.M.M.M.M.B.{.oXoX[.|.OX[.M..X4XXX[.",
"4X;X}.V.{.oX-XoX{.n.n.OX+X{.oX-X|.n..X5X[.b.b.b.b.N.{.oX5X8X-X~.n.M.M.n.M.B.V.}.4X9XoXM.b.n.B.V.B.B.V.V.V.B.M.n.[.5X+X}.+X-X(.c.",
"oXoX+X#Xn.n.[..X.Xn.b.#X}.{.{.[.[.XX4X4X-XXXXX#XM.N.n.n.[.-X4X#XN.n.M.|.[.n.M.{.4X9XoXM.c.n.B.M.n.M.V.V.B.N.M.|..XoX+X+X+X}.B.M.",
"B.}.4XXXn.b.n.|..X(.n.B.{.V.N.b.|.8X4X4X4X4X8X5X}.M.c.c.n.XX;X}.B.n.|.4XXXn.M.{.4X8X}.M.c.n.B.M.n.{.}.}.[.n.(.-XoX{.oX4XoXB.B.B.",
"b.[.4XOXB.#X.X[.n.M.B.V.{.V.N.b.|.4X+X}.}.oX4X8X5X[.c.n.B.{.}.{.}.5X9X8X4X-X(.n.-X4X[.c.c.n.B.oXOX-X5X3X1X[.{.}.{.n.|.4X#Xb.b.b.",
"b.(.OX+XoX+X;X#X(.#X}.{.V.V.M.n.#X+X}.V.V.{.+X5X5XXX(.B.{.V.{.}.OX4X4X5X5X;X{.n.oX.XM.b.b.N.B.+X8X4X5X6X5X}.V.M.M.~.|.OX{.n.b.n.",
"B.B.{.oX5X+X}..X-X4X;X}.V.V.B.B.{.{.{.V.V.{.{.}.}.oX-XoX{.V.{.<X3XoX}.}.}.}.{.B.{.{.B.B.B.B.{.+X4X+X}.5X4X}.M.n.(.-XOX}.{.B.B.B.",
"{.{.}.+X+XoX{.@X+X.X|.{.V.{.}.oX}.V.M.M.B.V.V.B.M.#X+X}.V.M.B.|.XX{.V.V.V.V.M.M.B.{.}.@XoXoXoXOX+X}.{.#X|.[.N.n.#X4X5XoX{.V.V.{.",
"B.}.5X+X{.V.B.{.{.n.n.B.{.{.oX3XoXB.n.b.M.{.V.M.n.M.{.{.B.n.b.b.n.B.V.V.{.{.M.n.M.}.;X4X4X4X4X+X{.{.B.n.b.b.n.B.oX4X8X4XoX{.V.V.",
"-.n.oX@XB.x.$.c.B.M.M.oX}.M.[.|.#XB.n.c.M.B.M.M.[.|.oX+XoXn.c.b.N.N.M.B.}.oX|.|.oX+X+X;X4X8X8X5X+X+XoX{.n.c.n.oX+X+XoX|.oXoX{.V.",
"*.-.M.{.{.$.O.#.B.V.}.5X.Xn.b.b.M.B.n.n.B.B.n.(.-X4X4X4X;X(.b.M.B.n.n.{.+X4X4X4X4X5X}.}.4X8X4X4X4X4X5X}.M.b.~.-X+X{.N.n.|.4X}.V.",
"~.~.n.[..Xm.#.x.n.n.[.8X8XXX[.M.B.{.#XXXOXOXXXXXoXoXoX+XoXn.b.#XOXXXXXOX4X8XXX[. XoX{.}.4X4XOXoXoX|.[.{.V.M.M.[.(.n.c.b.XX4XoXV.",
"8X.Xn.[.-XoXB.N.c.c.~.5X9X8XOX{.B.{.+X8X4X4X4XOX{.V.{.{.B.n.~.-X8X4X4X4X4X4X[.n.{.{.B.}.4X;X{.V.V.N.n.M.{.{.B.n.m.m.b.b.|.5X}.B.",
"8X-X{.M.(.{.{.B.M.M.M.(.XX4XXXn.M.{.5X4X+X}.[.[.B.V.V.V.{.oX-X8X4X+XoXoX}.}.oX.X-X.XM.[.4X;X{.V.V.M.M.[.#X{.}.XXXXXX~.b.[.}.M.n.",
"5X+X}.B.n.N.M.{.}.{.M.n.(.-XXXn.M.{.+X;XoX{.b.n.{.{.B.B.{.oX-X-X.X{.V.V.{.}..X-X4XOXM.M.OX+X{.{.}.}.}.#X[.{.}.;X4X5X|.n.B.B.n.c.",
"}.oX5XoXB.n.n.|.OX(.n.M.{.}.oXOXoX{.{.}.;X.Xn.n.OX|.n.M.B.M.n.n.M.B.V.{.oX;X|.~.[.}.B.B.}.{.{.oX3X5X;X}.{.{.{.}.}.}..XOX}.B.n.c.",
"}.oX;X+XoX{.(.-X4X|.(.{.V.M.}.+XoX{.{.oX.XXX[.#X-XXX(.B.B.N.b.b.M.}.{.B.oX4X|.n.N.M.V.{.{.B.B.XX6X9X4XoXV.V.{.}.{.{.oX+XoXB.n.c.",
"4X+X}.oX5X4X5X4X8X4XOX}.M.n.M.{.{.{.+X-X(.~..XOX}.oX-XoX{.B.B.B.}.;XXXn.[.4XoXB.n.n.B.[.[.~.n.#X4X8X4XoXV.V.}.;X+X{.{.{.{.B.n.c.",
"8X5X{.}.+X4X8X8X4X5XoX{.n.c.n.oXoXoX.X|.n.M.oXoXM.XX8X5XoX@XoXB.{.OX XM.(.|.oXoX#X[.oX.XXX[.n.{.+X;X.X{.M.B.{.|.#X{.V.V.V.B.M.n.",
"8X;X}.V.{.+X8X8X4XoXB.n.c.b.[.4X4X;X[.n.M.{.{.M.n.[.4X8X4X4X-Xn.n.B.{.B.M.n.|.4X4X4X4X4X4XOX{.{.{.{.{.n.n.B.B.n.M.B.{.{.{.{.V.B.",
"[.|.oX}.{.OX8X8X8X;X}.M.M.[.XXOXoX#XM.M.}.@X{.B.M.(.[.oXOX+XoXn.c.n.M.V.B.M.#XOXXX|..X+X+X+X+X}.{.}.oX|.[.M.M.[.[.{.}.<X}.{.oX+X",
"b.(.-X+X{.oX4X4X4X4X;X{.}.5X+X{.N.b.M.{.5X5X}.V.V.M.n.M.{.{.B.n.c.b.n.B.V.V.{.B.n.n.B.{.{.oX5XoX{.oX4X8X-X~.(.-X+X}.oX3XXX{.;X8X",
"M.#X4X;X{.}.oX#X[.oXoX{.{.oX}.V.n.c.M.}.4X5X(.M.B.B.M.#X+X}.B.M.[.|.[.n.M.V.V.B.M.M.B.B.N.n.(.n.n.{.OX4X8XXXXXoX+X+XXX_.n.M.-X8X",
"B.}.-XOX}.{.B.M.n.M.{.{.{.{.{.{.M.n.M.}.;XXXn.n.[.{.}.OX-X}.V.V.}.5XXXn.M.{.}.{.{.B.{.{.n.m.n.b.b.M.{.+X4X4X+X}.oX-X[.b.b.n.XX4X",
"n.n.~.|.OXoX{.oX|.M.M.OX<X[.}.+X}.B.oXOX[.n.b.n.OX5X;X|.(.{.V.V.{.}.oX.X-X;X5XOX[.M.oX;X.XXXXX#XM.B.{.}.}.}.@X+XXX(.M.M.#XXX[.~.",
"c.c.c.[.4X+X{.;X5X~.n.3X3X{.oX4X+X{.;X-X~.x.c.(.4X9X4X[.c.M.{.{.V.V.oX4X8X8X8X4X~.n.-X8X8X8X8X+X{.V.V.V.V.V.}.4XXXb.n.{.5X5X~.x."
};
