/* XPM */
static const char *player00[] = {
/* columns rows colors chars-per-pixel */
"64 64 240 2 ",
"   c #196E14F912C9",
".  c #1C2B18911471",
"X  c #18E2198C1957",
"o  c #14F511E50E15",
"O  c #288814910B8C",
"+  c #21521B8D1A1D",
"@  c #27B41BD814A5",
"#  c #31A31F3215D1",
"$  c #26FB21701B1B",
"%  c #3B4331331C02",
"&  c #296A26B4231D",
"*  c #3569299F24F9",
"=  c #396731C32AA9",
"-  c #3A9C36B734DB",
";  c #2D1330433063",
":  c #43542A3B1C5A",
">  c #45722D37239C",
",  c #453733A22B1F",
"<  c #4A5134F02B5F",
"1  c #4E2839962E18",
"2  c #482232DF25E0",
"3  c #547F3B5D2BC3",
"4  c #57B037202B0C",
"5  c #4251347331AD",
"6  c #4D053C7C3418",
"7  c #46A93AE638CB",
"8  c #4C173B783B1C",
"9  c #466739DA3573",
"0  c #53793C303309",
"q  c #54803DC439E5",
"w  c #58B83D84362A",
"e  c #63CC3B0A2C09",
"r  c #68863DAA36FD",
"t  c #7A073833398D",
"y  c #6F47282B28B3",
"u  c #5BD511111231",
"i  c #4DAD40DC3EDC",
"p  c #552043C93C36",
"a  c #5AA444853BC8",
"s  c #577543DC37D6",
"d  c #588540AC296A",
"f  c #6363437B3C2F",
"g  c #6A7746733941",
"h  c #6A2A53D53903",
"j  c #79BB58953D2C",
"k  c #71474AA43AC3",
"l  c #58A03E7F4154",
"z  c #6EE73E5C438C",
"x  c #70873D1C418C",
"c  c #3EF4402440D4",
"v  c #59F245A44181",
"b  c #5D764BE442F1",
"n  c #5B724C034B49",
"m  c #537E464643FF",
"M  c #5EC6531D51E5",
"N  c #5ED64F1D50C5",
"B  c #6C94441244E9",
"V  c #63514CAB4402",
"C  c #6C9F4BCB44D7",
"Z  c #6825479B4701",
"A  c #70E442FC44C7",
"S  c #72AD4E4243D1",
"D  c #72674542493B",
"F  c #74534B5C4CCE",
"G  c #7CD348D04C29",
"H  c #648B53164BF0",
"J  c #6BCF53354C62",
"K  c #6ABE550D48AA",
"L  c #735753C5455E",
"P  c #74C053624B65",
"I  c #74395BC74D47",
"U  c #7C6158814BC7",
"Y  c #6BF05BF85B94",
"T  c #689E57B15560",
"R  c #7552543A51ED",
"E  c #7A0C53EA5389",
"W  c #75AC5C94522A",
"Q  c #7A335D375313",
"!  c #7C535BC559C5",
"~  c #768759AF5B2F",
"^  c #770F4F0551CD",
"/  c #6AB260EA5BB2",
"(  c #76686238539F",
")  c #7A58634A5580",
"_  c #74BA632E5D31",
"`  c #7D47647F5ADB",
"'  c #7D8A6B735D5A",
"]  c #7FC76FF75FD6",
"[  c #6D3D5D3261B0",
"{  c #7A675E366006",
"}  c #6DD663316196",
"|  c #74B763DD6403",
" . c #7C0964B664B4",
".. c #7E4F6CC862B5",
"X. c #7DA465D968B6",
"o. c #7D1A6BCB6C09",
"O. c #777769C667CE",
"+. c #7E6771426861",
"@. c #7ED4743171FA",
"#. c #80D057C53D4C",
"$. c #85083E944224",
"%. c #82A55CED5BA9",
"&. c #87DB57CE566E",
"*. c #9C4357155DA6",
"=. c #8C714DFF4FCF",
"-. c #A25F576A5D56",
";. c #8205617C5645",
":. c #83AE65495D61",
">. c #8B5B64C65C8C",
",. c #82486A825E66",
"<. c #89C867BB5625",
"1. c #90096C6358AC",
"2. c #88F85AE5601E",
"3. c #9DB95EEE6426",
"4. c #A4345C606271",
"5. c #84AE65306209",
"6. c #8A99668D626A",
"7. c #84516C2B62C8",
"8. c #8A856C536468",
"9. c #84156D286B20",
"0. c #8B7C6E156982",
"q. c #93CE6CD865F8",
"w. c #94506E8E693F",
"e. c #9C5D6BCF6B84",
"r. c #9787660865E1",
"t. c #8393726564C2",
"y. c #89E2723066E0",
"u. c #84C4741D6A0F",
"i. c #8C6D74616B23",
"p. c #8C937A906C18",
"a. c #84EF7AF26894",
"s. c #92FC74FE6CC3",
"d. c #9C22734E6DBD",
"f. c #92407A6D6E1F",
"g. c #904871E760A6",
"h. c #87786E42713F",
"j. c #837173D4730C",
"k. c #8C1974CB727E",
"l. c #8D867B26743E",
"z. c #8BEB7B7A7A44",
"x. c #88DB78DC78AC",
"c. c #92A9761A71E2",
"v. c #9B5E765A712C",
"b. c #93747BD07362",
"n. c #9BEA7C35745A",
"m. c #93187DE17B25",
"M. c #9A9E7F377A3C",
"N. c #A68566A16981",
"B. c #A9B271176F67",
"V. c #AD0774877402",
"C. c #A55D7C3F7634",
"Z. c #AAC97DDF7A48",
"A. c #A57C7A57758F",
"S. c #AD7A6B9670B7",
"D. c #8900821C6CEA",
"F. c #91B587B86E92",
"G. c #8C0E86C6736A",
"H. c #94F68214758A",
"J. c #9ADD81AC770F",
"K. c #955A83AD7B80",
"L. c #9B61848E7B53",
"P. c #951E8C717C30",
"I. c #9B8B8AA97E00",
"U. c #93D18CBB72DA",
"Y. c #96C792FD7A45",
"T. c #A34684937C0F",
"R. c #A1718AEE7EC9",
"E. c #A89A81A07C2C",
"W. c #9AC986768260",
"Q. c #9DB98C4283C5",
"!. c #9D4B8C938A85",
"~. c #945F86A88118",
"^. c #9AC793148373",
"/. c #9DF395A68ADB",
"(. c #99B0966D87FD",
"). c #9F2997019131",
"_. c #A40E8CD68309",
"`. c #AA2B8DAB84A3",
"'. c #A24C8E648A05",
"]. c #A83A86708090",
"[. c #A4BB920785CC",
"{. c #AA56924186CF",
"}. c #A4A5941E8B67",
"|. c #ABD495748AAD",
" X c #A3A09AE98C24",
".X c #AC579A8D8E2C",
"XX c #B0EF9A6E8FA3",
"oX c #B04A95C98BB8",
"OX c #A65794C89255",
"+X c #A3C49CD39331",
"@X c #ACF99CF592CE",
"#X c #ACA49CA89BD3",
"$X c #A8DF97899561",
"%X c #B2589DD59268",
"&X c #B1AA9EF99BF4",
"*X c #AA94A17B97CF",
"=X c #B2F4A2859581",
"-X c #B51BA5769A93",
";X c #BA86A66D9BBC",
":X c #B62FAA2A9D19",
">X c #BB35AADB9DD0",
",X c #B4E6A5A2A38B",
"<X c #B517A9ACA455",
"1X c #BD0DACB2A2A6",
"2X c #B64BAB8FA90F",
"3X c #BA34AC41AA48",
"4X c #B9D0A6CAA3FA",
"5X c #BA6BB3E1AC8D",
"6X c #BE27B5E3B4CF",
"7X c #C0FDB0EEA3E6",
"8X c #C0DBB47BAF3A",
"9X c #C5EABE13BC13",
"0X c #C2F3B9EBB50B",
"qX c #C6EBC103B8C3",
"wX c #C73CBF7BC17B",
"eX c #CD0AC6E6C4C9",
"rX c #D503CEA9CDFF",
"tX c #D177C7B6C561",
"yX c #D757D3B7CFAC",
"uX c #DAF8D681D508",
"iX c #DE83DD25DD25",
"pX c #D9D2D597D472",
"aX c #E33DDEADDD3D",
"sX c #E11DE0BDDC2D",
"dX c #E31DE01DE0FD",
"fX c #E6E2E6DEE6DE",
"gX c #E60EE45EE404",
"hX c #EA3EE7CBE68E",
"jX c #EA55EA2EEA24",
"kX c #ED29ECBAEC5B",
"lX c #EC16EB36E836",
"zX c #F5C8F58DF572",
"xX c #FAAAFAA4FAAF",
"cX c #FF1EFF06FF01",
"vX c #FFF5FFF5FFF5",
"bX c #FF0FFF87FF5F",
"nX c #FE00FDCFFDCD",
"mX c #FF54FF46FF44",
"MX c #F7EFF84FF90F",
"NX c #F163F099F08E",
/* pixels */
"jXxXiXnX9Xm.OX9XzXvXvXvXvXvXvXvXvXvXvXvXvXjXfXvXiXxXvXvXvXvXvXvXvXvXvXvXvXvXvXvXvXvXvXjXfXvXiXMXvXvXvXvXvXvXvXvXvXvXvXvXvXvXvXvX",
"kXfXvXiX` 9.5.5.'.gXvXvXvXvXvXvXvXvXvXvXvXvXkXjXMXvXvXvXvXvXvXvXvXvXvXvXvXvXvXvXvXvXvXvXkXjXMXvXvXvXvXvXvXvXvXvXvXvXvXvXvXvXvXvX",
"fXjXzX$XJ _ ` 5.:.m.uXvXvXvXvXvXvXvXvXvXvXxXfXkXjXvXvXvXvXvXvXvXvXvXvXvXvXvXvXvXvXvXvXxXfXkXjXvXvXvXvXvXvXvXvXvXvXvXvXvXvXvXvXvX",
"MXvXjXj.H Y / ` ` :.b.hXvXvXvXvXvXvXvXvXxXiXMXvXfXfXvXvXvXvXvXvXvXvXvXvXvXvXvXvXvXvXvXiXzXvXfXfXvXvXvXvXvXvXvXvXvXvXvXvXvXvXvXvX",
"vXvXMX_ H Y / | ` ` 5.!.MXvXvXvXvXvXvXvXkXzXvXvXvXjXMXvXvXvXvXvXvXvXvXvXvXvXvXvXvXvXkXzXvXvXvXjXMXvXvXvXvXvXvXvXvXvXvXvXvXvXvXvX",
"vXvXgXb b T } | X. .5.` ,XvXvXvXvXvXvXvXvXvXvXvXvXvXvXvXvXvXvXvXvXvXvXvXvXvXvXvXvXvXvXvXvXvXvXvXvXvXvXvXvXvXvXvXvXvXvXvXkXhXMXvX",
"vXvXpXa n T / | o.X.X.7.5.eXvXvXvXvXvXvXvXvXvXvXvXvXvXvXvXvXvXvXvXvXvXvXvXvXvXvXvXvXvXvXvXvXvXvXvXvXvXvXvXvXvXvXvXkX5X}.H.b.!.hX",
"vXvX9Xp H Y } O.9.j.9.h.9.k.kXvXvXvXvXvXvXvXvXvXvXvXvXvXvXvXvXvXvXvXvXvXvXvXvXvXvXvXvXvXvXvXvXvXvXvXvXvXvXvXvXvXtXK.,.8.y.i.0.3X",
"vXvX5Xq H [ } o.o.o.j.9.9. .#XvXvXvXvXvXvXvXvXvXvXvXvXvXvXvXvXvXvXvXxXvXvXvXvXvXvXvXvXvXvXvXvXvXvXvXvXvXvXvXzX2Xi.i.i.i.8.y.7.!.",
"vXvX3Xl T [ o.@.@.@.o.j.j.9. .rXvXvXvXvXvXvXvXvXvXvXvXvXvXvXvXvXvXxXfXvXvXvXvXvXvXvXvXvXvXvXvXvXvXvXvXvXvXhX}.i.l.i.i.y.0.0.y.K.",
"nXvX#Xl Y [ | j.j.j.j.j.j.j.X.x.NXvXvXvXvXvXvXvXvXvXvXvXvXvXvXvXvXxXfXvXvXvXvXvXvXvXvXvXvXvXvXvXvXvXvXvXaXL.k.b.l.i.i.y.0.8.8.y.",
"vXvX!.v Y Y | O.j.x.z.x.l.x.j.~ $XvXvXvXvXvXvXvXvXvXvXvXvXvXvXvXvXxXfXvXvXvXvXvXvXvXvXvXvXvXvXvXvXvXvXjXl.9.b.p.l.i.y.7.7.7.8.0.",
"vXvXW.l [ Y  .o.@.j.x.z.x.x.j.o. .6XvXvXvXvXvXvXvXvXvXvXvXvXzXfXjXjXkXjXjXjXxXvXvXvXvXvXvXvXvXvXvXvXxXW.W 9.l.l.l.l.i.u.7.7.0.c.",
"vXvX!.V | Y | j.@.j.j.j.x.j.k.X.9.` 0XvXvXvXvXvXvXvXvXvXvXvXxXMXMXzXjXMXMXMXvXvXvXvXvXvXvXvXvXvXvXvX2XC 0.i.l.l.k.i.y.0.7.8.0.!.",
"vXvX!.V | ~ ~ 9.x.z.m.z.j.l.k. .~ 5.5.eXvXvXvXvXvXvXvXvXvXvXvXvXvXxXfXvXvXvXvXvXvXvXvXvXvXvXvXvXvXdX~ 5.i.s.b.c.p.i.8.,.7.8.0.$X",
"vXvX#Xf | _ Y O.j.k.z.K.z.z.x.h.X.9.i.9.}.3XtXpXiXkXxXvXvXvXvXvXvXxXfXvXvXvXvXvXvXvXvXvXvXvXvXvXvXu.W 0.8.i.i.c.i.i.8.5.7.8.9.4X",
"nXvX8XB O.o.Y | 9.9.k.i.k.k.l.m.k.k.L.}.m.l.x.W.!.!.~.'.-X-X3XrXgXxXfXhXuXuXuXyXMXvXvXvXvXvXvXvX#Xf 9.k.b.c.b.m.b.b.8.8.8.y.0.3X",
"vXvXrXB ~ j.X.~ 7.9.i.k.k.l.k.K.K.L.Q.}.OX$X$X#X,X,X$XOX$X'.W.'.'.W.}.!.m.J Z Z Y +X6XeXrXpXrX+Xf ` k.c.b.b.b.c.b.s.8.7.8.y.8.eX",
"vXvXgXC J X.h.R ! 9.k.b.m.m.K.W.Q.Q.Q.!.Q.!.OXOX!.#X3X4X3X,X3X,X3X$X&X@Xj.T N T n 9 > > 0 3 0 0 V ` 5.8.s.s.y.y.y.s.y.6.y.y.i.gX",
"vXvXzXR F { h.9.! 9.b.K.L.L.W.W.K.K.K.m.K.m.!.Q.Q.-X4X4X4X1X4X,X3X2X,X#XO.7 N n T 8 8 n q 2 0 0 V ! 7.y.y.f.b.s.8.8.8.0.s.y.!.xX",
"vXvXvX!.C 5.k.m.m.K.K.L.L.L.W.L.m.m.c.l.Q.Q.@X&X>X4X4X4X1X4X4X2X2X<X<X<X/.m M n n * 8 8 < v s 0 J R :.8.8.8.8.s.s.y.8.0.b.8.,XvX",
"vXvXvX6XZ 5.i.l.b.k.m.M.M.H.b.m.i.i.K.Q.}.}.@X-X:X@X-X4X4X4X4X4X3X2X2X<X<X@./ @.n 8 M 8 , , 0 H C S I :.8.w.8.8.6.8.8.s.n.8.tXvX",
"kXxXgXjX! 5.c.9.9.m.i.m.J.c.i.i.i.0._..X.X X+X=X@X-X>X4X4X4X1X1X3X2X<X<X<X#X!.z.| | v H m > b a C S P E %.8.8.0.0.8.s.n.s.J.NXvX",
"jXjXMXvXM.5.v.L.y.f.b.i.b.i.y.y.H._.{.@X.X@X@X@X-X>X>X>X>X>X1X1X4X3X2X4X-X=X+Xm.m.u.W a H 6 < 2 w C P P Q :.>.0.8.w.n.v.v.8XvXvX",
"fXkXjXvX'.0.6.s.b.f.f.s.i.y.,.s.`.|.%X.X.X@X X@X-X>X>X>X1X1X1X1X1X1X>X:X-X=X@X}.Q.W.9.T H b 6 2 1 V J %.>.Q %.8.w.v.v.d.L.hXvXvX",
"MXvXgXNX&Xc.c.5.s.f.b.y.8.f.J.J.L.{.=X=X.X}.@X>X=X-X1X1X1X1X7X7X1X1X>X;X-X@X@X@X}.}.Q.x._ V b s < > a U &.>.q.w.w.w.w.b.|.vXvXvX",
"vXvXvXkXOXJ.M.b.H.m.s.s.y.f.b.s.8.8.b..X|..X-X>X>X=X:X1X7X7X7X7X1X>X>X-X-X=X@X.X|.}.I.t.J a s s 1 2 1 f U 6.q.q.q.q.d.b.4XvXvXvX",
"vXvXvXxXm._._._.L.c.i.8.8.y.L 4 f L P :.`.XX=X=X=X-X-X1X7X1X1X1X1X>X-X=X-X-X@X.X@X@X}.K.u.I s s 1 1 2 f U ;.>.q.w.s.n.>.4XvXvXvX",
"vXvXvX9XW.@X.X[.J.i.y.,.;.e 4 4 2 4 g k ;.|.=X=X%X@X-X1X1X7X1X>X>X-X=X.X@X=X=X@X=X=X@X~.G.+.V p 0 0 s w f &.>.s.d.n.s.>.3XvXvXvX",
"vXvXeX~.@X@X}._.R._.L.>.4 g s +   . @ 3 e s.=X%X.X.X=X>X1X>X1X>X>X@X.X{.{..X.X{.p.K s s a J Y v p s 6 q C G &.>.q.J.n.w.eXvXvXvX",
"vXuX~.#XOX}.}.}..X.X|.:.g L     + & & $ e L %XXX|..X=X>X>X>X>X>X=X|.{._.|.XXL.f O O O @ # : p b q 1 < a f P >.>.n.|.T.s.iXvXvXvX",
"MX}.OX$X}.}.[.}..X=X%Xg U ,   * + & = * e e |.%X|..X=X-X>X>X>X-X@X}.Q.[.=X_.0 # * * * , 2 # 1 s 0 6 > 1 f L :.0.L._.v.`.xXvXvXvX",
"9X!.#XOX}.}.}..X.X=X-XW U * & T $ .   9 j e |.%XXX.X%X=X=X=X-X=X|.[.'.|.%XC : 6 . +   + 3 d > C w , = , w C :.s.W.{.n.qXvXvXvXvX",
"!.OX#XOX}.Q.}..X.X=X>X_.;.1 o     . & h #.g |.%X|.|.XXXXXX|.%X%X|.}.}.XXL.4 L $ o X - & o j 4 4 f , = , 2 w q T l.L.k.zXvXvXvXvX",
"W.}.$X}.'.Q.'..X@X+X=X-XJ.I 9 & $ = h <.r A |.%X|.|..X.X|.|.|.}.'._.}.}.0.L U - ; . & ; & 3 #.4 k > # & 5 m m i H u.9.iXxXvXvXvX",
"Q.}.}.}.Q.Q.'.}..X.X=X-X-X%XR.i.:.<.g.>.A b.|.|.|.{.|.|.|.|.|.[.[._.}.`.%.S j / c . + $ X 3 ;.2 <.P 0 * & = 7 m m J R 9XvXvXvXvX",
"_.}.}.Q.!.Q.Q.}..X=X-X-X=X>X>X>X;X%X|._._.XX|.{.{.|.{.{.`.`.|.|.|._.!.].r.e =.h $   + $   j g > g.I V b , & * 7 m q _ wXvXvXvXvX",
"_.'._.Q.W.I.Q.}.@X.X.X@X@X;X;X>X>X-X%X%X%X.X[.{.`.`.`.].C.E.`.`.{._.W.T.E.r P <.h % @ # d h 4 b.J.W V b b 5 $ , n 8 H ).vXvXvXvX",
"Q.'._.Q.W.I.I.!.'.`.|..X@X=X-X-X-X=X=X@X%X|.{.`.T.T.E.Z.C.Z.E.T._._._._.{.T.T.T.T.f.g.t.y.i.|..Xi.T T V b v 5 - m q p ..fXvXvXvX",
"L._.I.Q.W.I.I.K.L.R.[.|..X.X.X@X@X@X%X%X%X{.`.T.C.E.Z.A.A.Z.C.C.C._._.`.|..X|.%X;X;X>X1X>X>X-X{.H...J b 0 a n * = m p H rXvXvXvX",
"L.I.I.I.W.K.H.H.H._.|.|.[.{.|.|..X%X.X.X{.T.A.e.A.Z.Z.Z.Z.E.Z.B.d.T._._.|.|.XX=X=X-X-X-X>X;X>X>X.XK...Y H _ / i 5 7 p q #XvXvXvX",
"J.L.L.K.K.K.b.c.L.[.[.[.[.{.|.|.|.|.|.|.e.&.r.e.V.V.V.Z.Z.Z.Z.B.e.e.T.`.{.|.|..X=X=X-X=X=X-X=X=X=X.XQ.p.u.W...8 = 5 p b K.vXvXvX",
"m.L.K.K.K.b.p.H._.R.R._._.`.`.{.|.{.|.|.T.*.=.t y N.V.B.B.V.B.e.e.r.&.d.|.|.|.|.|.}.}..X.X.X|..X.X}.[.I.^.[.l.b 9 5 m V y.zXvXvX",
"b.L.H.K.b.p.b.J.L.J.L.L.L.I._.[.`.{.{.{.|._.d.&.t 2.S.N.S.B.y u t t =.n.`.[.{.{.`.[.Q.Q.[.[.I.I.[.[.[.Q.[.|.[._ 8 7 p V 7.MXvXvX",
"b.K.l.b.p.l.b.f.b.H.m.H.J.J.J.L._.`.`.{.{.`.].d.r.N.4.-.N.N.$.t &.d.{.{.{.[.{.{.[.[._.Q.Q.[.Q.H.H.[.[.I.[.}.|.H._ b p V u.zXvXvX",
"H.K.l.c.l.p.i.i.c.c.f.p.b.J.J.J.L.T.T.R.`.`.T.M.3.-.3.*.-.4.N.B.`.|.oX{.{.{.|.[._._.R.R.I.I._.L.y.f.R.I.Q.}.}.[.K.Y v V b.MXvXvX",
"K.l.l.b.c.i.y.y.0.8.i.i.s.y.s.v.n.n.n.n.n.C.n.v.e.-.*.*.4.*.e.C.`.`.{.{.{.{.{.[._._.R.I.I.L.L.R.i.,.p.L.[.[.}. X^.K.H K }.xXvXvX",
"b.b.l.l.p.y.0.7.0.0.7.0.7.:.8.0.s.s.v.v.v.c.d.e.e.e.=.=.3.e.e.v.T.T.T.T.T.T.R.R.f.b.J.b.L.R.I.K.f.,.7.f.I.[. X/.P.P.a.u.2XvXvXvX",
"b.b.b.k.u.7.7.9.7.` ` :.P L P :.5.6.8.6.0.w.r.r.r.6.=.=.e.r.r.d.s.v.n.T.n.J.L.J.m.J.b.m.L.J.b.H.b.t.,.f.L.[. X X^.P.G.~.5XvXvXvX",
"b.b.k.u.9.0.0.7. .` ` Q C f f r B E ! %.%.%.%.&.&.&.G G r.r.6.6.s.s.s.s.n.c.s.s.y.y.i.y.s.b.b.i.f.y.,.i.H.Q.[. X+X+X/.(.qXvXvXvX",
"k.b.9.9.9.9.9.7...' ` Q I C S C B B B B B D x z A x r r G &.&.%.5.5.5.8.0.0.0.7.9.9.8.8.8.,.i.p.y.i.y.p.b.I.[. X X+X*X+XeXvXvXvX",
"k.k.i.i.0.0.9.9.5.5.` :.` I W W E E E F F D D F D D B A z A D F D D F P R P P R W ` :.` 7.7.,.y.y.y.f.b.L.I.^. X}.).*X).pXvXvXvX",
"b.i.y.9.9.0.9.9.7.7.,.' :.` ` Q ! 5.%.! %.! ! %.! 2.E ^ E E F F D D D B B C C g g K ` ` ` 7.' 7.i.y.f.H.K.I.Q.^././.+X*XkXvXvXvX",
"i.i.i.y.y.y.y.0.7.7.' ' ..,.:.7.7.8.:.:.:.5.5.5.%.! %.%.E E E F ^ E ! E R I L L K K I Q ( ` ` y.i.y.y.H.I.I.I.^.^.).+X2XvXvXvXvX",
"}.7.y.y.y.y.t.t.0.7.' ....,.,.7.7.:.:.8.7.7.8.6.5.5.5.5.5.%.%.%.%.%.5.%.:.:.) I I I I W W ) ` y.i.y.t.a.H.K.I.^.Q.+X+XeXvXvXvXvX",
"0X7.i.y.y.t.t.t.t.7.' 7...` ,.,.7.7.7.:.:.7.:.6.6.6.5.5.:.:.6.:.:.5.5.:.:.:.) Q I I W ) ) ` ,.u.u.7.,.' p.H.P.Y.^. X+XgXvXvXvXvX",
"gXu.y.i.y.y.t.t.u.u.u.t.t...9...5.:.,.:.7.7.,.7.8.:.>.8.:.8.8.8.8.0.,.7.5.' ` Q Q W ) ` ` ,.t.t.t.7.t.u.p.H.P.P.^.^.*XfXxXvXvXvX",
"nXI.7.i.y.t.t.t.t.u.u.t.t.7.7...5.,.7.7.7.7.:.7.7.:.5.:.7.,.7.8.8.7.` ) ` ) ) ( ) ) ) ` ' ,.t.t.t.,.,.p.p.F.U.P.^.^.5XMXxXvXvXvX",
"vX0X,.y.y.t.t.t.t.t.t.u.u.t.7.,.,.' 7.7.,.5.7.:.:.7.:.:.7.,.7.,.,.) ` Q ) Q ) ) ) ) ` ' ' ,.,.] t.' t.u.a.D.F.U.P.^.sXvXvXvXvXvX",
"vXkXi.7.t.t.t.t.t.t.t.u.u.u.t.7.' ' ,.,.7.7.' ,.,.:.:.:.,.,.,.) Q ( _ ( ( ) ) ) ` ` ` ) ' ' ' ] t.t.u.p.D.F.U.Y.G.:XvXvXvXvXvXvX",
"vXvX-X` ......t.t.t.t.t.u.u.t.t...7.' 5.,.' ' ' ` ) ) ) ) ` ) Q I I ( W ( ) ) ) ) ( ( ( ' t.' t.u.u.a.p.F.F.U.Y.Y.hXvXvXvXvXvXvX",
"vXvXkXu.' ' ' ' ....t.t.t.t.t.t.t.t.' ,.' ' ' ` ) ) ) ) ) ( ( W W I I W W ( ) ) ( ( ( ' ] u.t.] u.p.a.D.G.U.U.U.qXvXvXvXvXvXvXvX",
"vXvXvX0X( ' ' ' ' ' ......t.t.t.t.t...' ' ' ' ` ` ) ) ) ( W W I I I I I W W ) ) ) ( ' ' t.t.+.a.a.a.D.G.G.Y.F. XMXvXvXvXvXvXvXvX",
"vXvXvXvX}.' ' ' ' ' ' ' ' ' ] ' ' t.t.' ' ' ' ` ` ` ) ) ( ( I I I I I ( ( ) ( ) ' ' ' t.+.+.a.a.D.G.D.G.Y.Y.Y.yXvXvXvXvXvXvXvXvX"
};
