/* XPM */
static const char *exit[] = {
/* columns rows colors chars-per-pixel */
"64 64 255 2 ",
"   c #030000",
".  c #0C0101",
"X  c #130301",
"o  c #1C0C02",
"O  c #1B0907",
"+  c #1C1308",
"@  c #191616",
"#  c #150F10",
"$  c #270B05",
"%  c #27130A",
"&  c #381A0C",
"*  c #261814",
"=  c #361C13",
"-  c #350A05",
";  c #3A2419",
":  c #2B221D",
">  c #372926",
",  c #393433",
"<  c #342C26",
"1  c #441D15",
"2  c #4B1A0F",
"3  c #4A2C1B",
"4  c #452519",
"5  c #542B17",
"6  c #532F17",
"7  c #662F0C",
"8  c #65310E",
"9  c #6B340D",
"0  c #6D380C",
"q  c #73370C",
"w  c #663412",
"e  c #6A3514",
"r  c #6D3916",
"t  c #6E3A1A",
"y  c #66381B",
"u  c #733B15",
"i  c #723D1C",
"p  c #783B17",
"a  c #652C14",
"s  c #482C23",
"d  c #493427",
"f  c #563626",
"g  c #483A35",
"h  c #583D37",
"j  c #4C2C28",
"k  c #6C3D22",
"l  c #663B28",
"z  c #733F21",
"x  c #6B3E33",
"c  c #6D4119",
"v  c #74411E",
"b  c #7B421C",
"n  c #7A4216",
"m  c #7C4A14",
"M  c #584439",
"N  c #51452F",
"B  c #6C442A",
"V  c #694127",
"C  c #764121",
"Z  c #754222",
"A  c #784323",
"S  c #7A4525",
"D  c #7A4523",
"F  c #7D4926",
"G  c #74442B",
"H  c #7D4A2A",
"J  c #78462A",
"K  c #684833",
"L  c #734838",
"P  c #765639",
"I  c #6D5434",
"U  c #7D633E",
"Y  c #4B3F41",
"T  c #594A46",
"R  c #5E514D",
"E  c #55514C",
"W  c #694C46",
"Q  c #65544C",
"!  c #795449",
"~  c #675955",
"^  c #775A51",
"/  c #5B6256",
"(  c #77665A",
")  c #726952",
"_  c #6B6463",
"`  c #776B67",
"'  c #75746B",
"]  c #813C1A",
"[  c #8E4412",
"{  c #89471A",
"}  c #914615",
"|  c #934916",
" . c #944B1B",
".. c #9A4E1D",
"X. c #964719",
"o. c #9B511E",
"O. c #97551E",
"+. c #904913",
"@. c #A4571D",
"#. c #8B4C24",
"$. c #814C2B",
"%. c #844824",
"&. c #934E22",
"*. c #9A4E22",
"=. c #924B2A",
"-. c #8A5227",
";. c #945224",
":. c #9D5323",
">. c #9C552A",
",. c #9C5A2C",
"<. c #96572A",
"1. c #885834",
"2. c #9B5C32",
"3. c #975833",
"4. c #844E32",
"5. c #A15524",
"6. c #A35826",
"7. c #A15529",
"8. c #A45B2B",
"9. c #A95D2D",
"0. c #AB5727",
"q. c #A35C33",
"w. c #AA5D31",
"e. c #A15732",
"r. c #B05E30",
"t. c #98643D",
"y. c #8F6437",
"u. c #AC622D",
"i. c #A6632B",
"p. c #B4652B",
"a. c #AC6332",
"s. c #AC6B34",
"d. c #A66538",
"f. c #B26534",
"g. c #B46B3B",
"h. c #B76B38",
"j. c #AE7135",
"k. c #B9763B",
"l. c #BF712D",
"z. c #C57B3C",
"x. c #CA7D3B",
"c. c #C57836",
"v. c #D57D3B",
"b. c #C37031",
"n. c #88574D",
"m. c #966846",
"M. c #9B794A",
"N. c #9C7C55",
"B. c #8A6D52",
"V. c #B96E42",
"C. c #A97847",
"Z. c #B97846",
"A. c #A67A56",
"S. c #AE744F",
"D. c #837469",
"F. c #887A77",
"G. c #916E67",
"H. c #A67966",
"J. c #B17A70",
"K. c #C67B46",
"L. c #D57C43",
"P. c #C27D53",
"I. c #778675",
"U. c #B5853D",
"Y. c #CD823C",
"T. c #C4843D",
"R. c #D3833D",
"E. c #D7883D",
"W. c #948457",
"Q. c #B98449",
"!. c #A8885A",
"~. c #B98856",
"^. c #B28D54",
"/. c #998A69",
"(. c #9A9A78",
"). c #8E8775",
"_. c #A88964",
"`. c #A99469",
"'. c #B89769",
"]. c #AA8879",
"[. c #A79876",
"{. c #B89977",
"}. c #B7886D",
"|. c #B9A778",
" X c #B5A46C",
".X c #9FA27D",
"XX c #CB8442",
"oX c #C78449",
"OX c #D48344",
"+X c #D78848",
"@X c #C48553",
"#X c #D39255",
"$X c #E59754",
"%X c #E28B4B",
"&X c #C69A68",
"*X c #CD8E6C",
"=X c #CBA279",
"-X c #EBA066",
";X c #857E80",
":X c #7E8E80",
">X c #8D8887",
",X c #9B8A83",
"<X c #98968B",
"1X c #989695",
"2X c #899C8C",
"3X c #A79488",
"4X c #A69A95",
"5X c #AF9489",
"6X c #95A792",
"7X c #A9A687",
"8X c #B5AA84",
"9X c #ABA39D",
"0X c #B4A59C",
"qX c #B5BC97",
"wX c #B1B590",
"eX c #98B1A8",
"rX c #B6ABA8",
"tX c #B3ADB2",
"yX c #BBB4B4",
"uX c #AFACA8",
"iX c #C89686",
"pX c #D59886",
"aX c #D7AA8B",
"sX c #C9A994",
"dX c #C5B798",
"fX c #D1AD8D",
"gX c #E9AE97",
"hX c #C3B3A9",
"jX c #C5B9B7",
"kX c #D4B0A5",
"lX c #ECB8A4",
"zX c #E29C8A",
"xX c #BAC6A7",
"cX c #AFCFB4",
"vX c #A5C4A7",
"bX c #CBCCB3",
"nX c #F9C5A9",
"mX c #F9CDB8",
"MX c #D4D3AA",
"NX c #C8BEC7",
"BX c #B3DAC6",
"VX c #BBEADD",
"CX c #CBC7C7",
"ZX c #D4CACA",
"AX c #D6D3D2",
"SX c #E7DBD7",
"DX c #F3D7C7",
"FX c #CDEAD7",
"GX c #F3E6DC",
"HX c #D4F7EA",
"JX c #F4EAE5",
"KX c #F8EBE5",
"LX c #FFFAF6",
"PX c #FDF8F6",
"IX c #F3F0EA",
/* pixels */
"e Z S Z C v C Z Z S $.H t i Z Z i v t Z F i Z Z i Z z z G G y y y t t t Z t t Z i S S Z Z Z Z Z Z $.H i i Z z i i t i H t Z A i ",
"e i Z Z v i v C S F S S t i Z Z v Z i S H Z i u b %.b i F F r t t r v p i u i Z i A F Z i i i Z S S F i i Z Z Z Z i Z $.i i t Z ",
"r C Z t r t t Z i i i A H S i i Z Z t e t t t t v D i r e i $.F v u e r r i A i i Z i t r t A i i Z i S A i i Z A i r t t i i i ",
"t H H i r t Z H A i t t i i t r i Z i t t t t k V V k y t C t t Z C t Z r C Z Z H $.Z t i i $.A i i t i Z i t i A i r t t t i z ",
"t H H i e r Z $.S i t i S Z H S i Z Z i i i i A C C A k C z i i v Z i t e i D A S 4.A t i Z $.S i r i Z Z Z H t Z Z i i i i Z S ",
"e v H t e t Z C Z Z i Z S i Z H t v Z i i Z Z b p u p p i i A i i i i i e p b i i H Z e t i Z i i i A S t i H t i Z Z Z A Z Z z ",
"e i Z t t i C r i Z S A H t t i w i i i Z S A p u e u i z Z J H G k k G t v i r t i i t i Z t t Z Z Z F t r i e i i i Z D S A t ",
"t Z r i S S S A t e e Z $.Z t e t D i r i i z u r r y y 3 3 d 3 3 s s d 3 6 V A Z r i F A D A i e e i $.S i t e S i t Z i i i t ",
"t S Z S S S S S t t i i F Z i i v A Z i t i S i t k l s X . . . X .     X $ K G Z v b F Z D F i e i i H Z i i Z A S i t i Z Z t ",
"t S S Z Z S S Z r Z $.i Z i A F D i i i t i S z Z B 3 ; ~ ~ ~ g > ~ ~ ~ ~ M = B J v b i A D D r t $.z S i Z H F Z i i i t Z Z Z ",
"e Z Z Z i v Z v S S H D v S S D v i i i i e z G G 3 ; ~ rX4X9X( W 9X4X1XrX3Xd 4 V J v i v v v Z Z S D Z A F F Z i i i Z w i Z Z ",
"e i Z v i i i i F D i Z i F D i i i i t t t z k l & ~ yXCX<X4X^ h 3X<X>XrXZX,X> 3 B V t v i u S F i A i S S i i i i i t r i i Z ",
"w i i i i i i e t Z D i e i A A i i v r r i A l $ ( rXZXCX1X3X^ K 3X<X1XtXAXbX4X> & Z v i i r t i A i w i Z Z i i i i r i i i H ",
"w i i i i r i F $.D i A r t v i i i i S F w 4.K O ` jXAXCXZXR = 1 d tXCXCXZXCX9X> = B t e i S $.D v D r r i v i i i i D e Z H i ",
"e i i i r e u F D D F D e r i i i i A $.F z S l o ` jXAXZXSX, h ^ % yXAXZXZXZX9X> = B e e r S D D b F r r r i i r A F F D D S i ",
"e v t v i v D r r v F v 9 v D F F Z D i e i k f o _ uXNXAXSX, Q ].% jXAXAXZXyX1X< = L v p H t r v D v w v D Z D D A i r i i i i ",
"e i v D A Z A i v i i r r F F %.%.S i u 9 e B f % Q ;X1XyXjXh W G.4 0XyXjXrX>X' > ; B F i F i i i i t e Z $.H H A i i t i i i i ",
"w v Z A r e r i t i v i t D i i i i i b %.G 6 $ ~ ` ' ~ % $ 5XDXmXkX4 $ $ > ' _ ' g $ t e w t i i i i i i A t i i t Z H S S i i ",
"w i i F v e r i r r i S e r r i i i u p p y 3 + ` ).g 4 G.J.aXpX}.}.}.].J.! = ` >Xg % L r e i t e i D i e t i t t t r i w t i t ",
"w t t $.Z 8 r i w i F v e 8 r i i i i u e V d X < < h n.pXnXnXgXaXaXnXmXgXJ.! g < @ * P e e i e r D b e 8 e i u u b i e e r i i ",
"w i t S v r i i r v F r r e i i i i A u e Z 3 O s O g G.n.J.aXlXnXlXlXiXB.! B.O > * % G e u u 0 n b u 9 9 0 p p u b p 9 p u u u ",
"w i r i i i i i F A v A D i i u i i i b b J 6 - ].j $ ; ; O L *XgXzXH.= $ ; = $ G.W - 1.;.;.&.2.2.<.2.2.;.#.;.;.;.;.<.2.2.2.2.3.",
"w i t F A 7 e i i i t i i r r u u t t i i Z 5 - H.L $ T AX< X n.lXpX1 . F.jX$ 1 H.L 2 V.X. .:.,.,.,.>.,.;.;.;.;.;.>.,.,.,.,.>.,.",
"w i t S v 8 e e e e 8 8 e r e w 9 w H Z r i w 4 1 2 n.kXSXd $ B.mXlXd $ ,XGXJ.l 2 5 1.d.} | | .. .[  .X.*...}  .| a.a.:.6. . .>.",
"8 i i $.v 8 e w w e r t r i i i r i A C r e e y 1 - n.kXiXH.].sXDXmX{.H.{.aXiX2 2 S S.f. .| } }  .o.5...6.6.5...o.9.9.:.o...:.:.",
"8 v i A i e e e t t i i i i D i i A i i i t i v B $ 4 n.*XgXmXmXmXmXmXnXiXA.L - x m.w.0.X.X.| ..:.:.7.:.7.9.9.6.9.5.5.7.....7.>.",
"8 v D r e e e i F i 8 8 w t i Z S Z t Z A D t S f % X j J.zXnXnXnXnXnXgXiX! $ X f t.&.[ }  .:.f.a.}  . .*.7.9.9.9.6.6.9.9.7.9.a.",
"8 e r w r i e i i r 8 w 8 i i v Z r r i i z k l $ . Y W - H.aXgXgXgXgXiXx = _ @ X 5 { o.o.[ :.7.7.X. . .7.w.9.9.5...5.5.6.5.9.a.",
"w t 7 r i r r D i r w w w D F Z v e b i e k B h O T T < T = ; 4 1 1 1 & f g < >X> 2 3.>.5.} w.8.*.X.X.} w.g.9.6...6.9. .:.:.7.7.",
"w i i i i i r i e e w r i Z i e e 9 b u y B f * X < # : 4XF., > T ` ( ^ ).D.+ uX,Xl a 2.>.*.7.*.*.{ :.8.w.8.......9.6...9.7.*.7.",
"w Z v i i i i r w e e r i i r e e u n v Z L f . . < N I D.F.g R 4XjXhXjXhX` + ).jXG.1 y 4.3.=. . .&.>.8.7.*. .| :.7.7.6.6.7.:.8.",
"e Z i v i i A i r e r e 8 i D v i i n #.G f f % . /.lX!.$ % . Q hX0X0X0X,XT # Q 3X,XT . f H { n q #.;.{ *.7.:.7.:.8.a.f.:.:.:.:.",
"e v i Z v i v t r 8 e e e i v t t c c e 5 X ; _ o /.fX&X!.[.> R hX0XrXF.R > + ^ ( ` T . 3 G u 9 9 p #.#.,.w.:.a.9.6.o. .:. .:.f.",
"t v r i v D i r r r i r t v v t i D 0 -.L   < 4Xg & y t.A.; . M ).F.F.~ : . X d ~ D.Q . d G 9 9 u i p #.q.w.:.7.6...7.6.:.} :.a.",
"e v r r i v i e r i Z v v v v F ] #.{ 2.n.  , rX> f A.=XaX].: # > > > * < , . T D.W 4 ; f C w t i A p #.2.w.:.o.:.7.9.f.7. .:.9.",
"8 v v i r i r r v i r i t t c b p #.d.d.!   , rX$ B.lXnXlXsXM * : * * * R ~ * h T 4 1 B k i i S A e p 3.q.q.7.:.:.u.9.6.a.7.:.;.",
"8 i D i i i i i $.v 7 8 8 8 8 9 q ;.;.V.B.  , 4X% ! iXlXiX$ ~ >XF.F.F.D.` ~ g X X 4 B t i i e S S a 7 p &.>.:.7.:.:.9.f.g.8.*.{ ",
"w i Z i i i i v $.A e r u u r n 2.d.O.>.G . : _ + h ].lXsX% 9XPXGXJXJXbX` M _ # ; V t u u t A e t 3.%.q.f.6.7.9.:.:.:. .:.:.*.*.",
"w i Z i i i i A A Z S D u b %.3.d.a.o.0.4.X = ` < * = = = X g _ F.D.Q M D.,X~ # d I k t u i v F $.=.#.d.a.:.:.7.7. . . .| 6.w.;.",
"8 i v i i i i v t v $.D 9 { 3.q.8.6.@.0.3.6 j s ~ @ , ( M O ` rXrXrX4XF.,XhX).+ N ) M V V t u -.2.<.2.i.:.o.7.:.:. .o.6.| 6.u.:.",
"8 i Z Z v t r r i v v b q ;.#.[ |  . .#.1.U I = T # _ bX_.+ yXLXPXPXLXSXhXrX0X@ / I./ M N N c y.V.V.a.i.6.o.7.7.:.o.a.g.7.:. .>.",
"w t t r e w w r u u u { ;.:.>.:.;.y.I I W.).(.D.;   ~ sXN.o uXPXJXJXJXKXZX0X9X@ _ eX2XI.' ` ! m.S.Z.K.K.6. .9.8.9. .o.6.7... .:.",
"w S H t w r t D p q n :.:.u.s.d.N.8X6X2XvXcXbX/.B.* R fXW.o tXPXJXJXJXKXZXrX9X@ / eXeXeXeX6X).! m.Z.6...f.a.} 9.:.[  .|  .[  .:.",
"e H H r w e v $.q n  .o.o.u.j.M.[.FXVXVXvX6X(.B.B.* Q fXN.o tXLXJXJXJXJXJXAX4X* M I.:X2XeXeX6X) I 1.d.0.6.8.9. .:.} [ }  .[  .w.",
"w v H t e e p b {  .8.u.o.a.s.M.qXHXHXHX6XW.B.$.M.& Q fXA.o tXLXJXJXJXJXKXGX4X+ N ) ) ' 6XeXeXI.) n.S.Z.*. .f.:.o.:. .} [  .>.8.",
"8 y v r 9 u q q ;.:.8.oX:.s.s.M.wXFXAX0XN.M.d.>.@X4 Q fXA.o uXLXJXJXJXJXKXSX4X* d B.U I ) ).eXcXuX/.!.Z.7.| :.g.:.a.f.} [ 9.g.*.",
"r t w i b p { 2. .{  .8.j.s.C.!.(.wX7X`.C.j.Z.P.*X& Q fXN.o tXLXJXJXJXJXKXSX4X* M 1.1.m._.[.2XBXBX<XB.3.,.;.:.:.:. . .7.:.:.:.*.",
"y Z t Z b #.2.d. .{  .:.s.d.M./././._.~.@XZ.oXoX~.& ~ dXN.o tXPXJXJXJXJXKXSX4X* M m.3.P.=X*X/.vXVXFX].1.<.,.a.a.9.:.:...:.7.:.{ ",
"e F v u %.d.d.9.| 7.f.6.i.C.[.qX<XB.}.Z.k.oXoXK.S.& ~ hXN.$ rXPXKXKXKXKXKXDX5X* V m.q.P.@X~.}.9XBXFX/.1.{  .Z.8.V.a.:... .6.9.:.",
"8 v b b &.8.8.6.5.8.f.6.,.!.bXFXqXB.C.j.j.@X@XZ.Z.2 T 3XA.$ uXPXGXJXJXJXPXSXF.% V t.g.k.Z.Q.Z.`.eXBXB.1. .:.g.6.K.f.o.7.[ :.6.:.",
"8 u b <.8.:.o.o.g.a.7.6.;.N.xXHXcX`.m O.k.oX@XoXK.%.3 P _.o tXLXIXPXPXJXjXF.g ; B d.oXk.c.k.k.^.(.7XB.<.s.V.V.V.V.7.:.:.| ..:.o.",
"7 b <.>.:.5.o.[ O.8.u... .H (.FXBXxXW.Z.OX%X+X+XK.#Xy 4 _.+ 1XSXZXAXZXrXT o & P 3.g.OXR.Y.XXj.Q.!.!.C.k.[ >.*X#Xg.:.o.[ :.:.6.a.",
"q ;.>.6.:. .:.i.a.8.6.0.| t./.eXHXFX6X_.+X%Xv.OXXXK.5 3 _.+ O * % % % $ 6 P 1.3.w.L.L.K.k.Z.~.^.C.Z.s.8. .:.V.g.9.o.:.9.| 7.a.6.",
"p ,.:.:...[ o.s.a.a.w.f.} C.W.7XHXHXcX7X'.oXK.x.XX~.6 s [.% 3 K K V k V $.i.s.k.z.L.x.Z.!.`.8X'.Q.oXs.i.7.5. .*.:.6.9.f.:.9.a.6.",
"p ,.:.9.6.:.a.o...9.f.9.[ d.^.8XGXPXFXcX.X!.~.@XoX~.f % g o 1.@XC.Z.P.P.@XOXXXT.XXY.oX~.`.xXbX[.S.j.s.h.0.5.u.a.7.9.8. .9.6.5.u.",
"{ <.:.f.9.9.a.:.7.:.:.o. .g.@X'.dXAXFXVXBXxX8X{.~.C.3 X . X m.$XT.oX$X#X#XoXoXQ.Q.Q.&X|.qXFXHX7Xm.j.j.k.0.0.Z.k.9...:. . .:.@.@.",
"{ q.w.6. . . .7.a.8. .0.z.h.f.C._.7XvXBXHXFXcXwX`.W.B.) ( ( ~.oXQ.U.U.U.^.^.!.!.`.|.8X7XqXcXbX|.~.oXoXOXb.h.K.g.9.:.9.g.9.9.@.5.",
"%.2.8.a.9. . .7.:.8.6.u.h.p.r.a.k.A.(.6XFXHXHXcX|.`.8XqXwXdX'.@X~.^.|. X X[.8XxXxXqXqXwX[.[.[.!.Z.oXXX+Xp.u.oXf.6.:.6.9...o.:.:.",
"%.3.>.g.a. . .7. .6.V.f.p.p.f.l.x.k.Q.^.|.dXxXqX|.'.=XdXqXMXfX&X~.{.dXwX8X8XqXcXbXxX8X|.Q.Z.Q.Z.K.OXT.c.p.u.g.8.:.7.5. .....>.<.",
"=.e.7.a.7. ...5...h.K.u.p.p.h.OX$XT.c.T.Q.^._.'.&X@X~.'.`.|.'.@X~.{.dX8X`. X`.`.8X{.&X#Xc.b.Y.+XOXz.z.@.k.k.o.:.:.9.7. .5.:.,.<.",
">.>.5.:.7.9.6.5.f.h.r.f.@.z.+X+XOXXXR.+X%X#X#X#XOXz.z.Z.Q.^.Q.T.U.Q.~.^.C.Q.oX@X#XoXk.Y.E.E.R.c.z.XXz.@.p.s.6.f.6.6.6.6.f.6.o.>.",
"q.7.6.7.7.>.:.:.7.7.9.u.u.p.l.p.@.z.OXOX+X+X+XOXOXv.R.%X+XXX$X+XY.XXXXz.Y.OXOXOXOXx.E.E.c.c.Y.b.z.-XOX@.h.f.:.g.u.5.7...:.9.u.@.",
"8.7.9.7.:.:.5.7.6.:.:.8.u.p.p.p.b.R.+XOXK.x.c.c.R.Y.Y.$X%XOX$X+X%X+XR.v.%XOXx.z.Y.x.$X%Xb.b.c.x.x.c.p.l.f.7.7.k.9.5...} [ 9.f.:.",
":.:.6.7.7.7.:.7.7.:.:.s.O.u.l.x.R.E.+X+XK.z.c.x.x.x.x.+XL.x.+XR.$XOXv.R.OXY.XXXXXXx.+X%Xb.c.c.x.Y.l.@.z.u. . .f.6.5..... .8.9.7."
};
