/* XPM */
static const char *floor[] = {
/* columns rows colors chars-per-pixel */
"64 63 141 2 ",
"   c #BE6D2C",
".  c #BE702E",
"X  c #C06F2E",
"o  c #C1712F",
"O  c #C26E30",
"+  c #C57432",
"@  c #C87736",
"#  c #C57936",
"$  c #C97937",
"%  c #C97638",
"&  c #C77B38",
"*  c #CD7C3B",
"=  c #D07F3E",
"-  c #D07F40",
";  c #CE803E",
":  c #D1803E",
">  c #CE8442",
",  c #D58444",
"<  c #D58445",
"1  c #D68544",
"2  c #D68545",
"3  c #D78644",
"4  c #D78645",
"5  c #D68546",
"6  c #D78646",
"7  c #D48342",
"8  c #D88545",
"9  c #D88744",
"0  c #D88645",
"q  c #D88745",
"w  c #D98646",
"e  c #D88746",
"r  c #D88747",
"t  c #DA8746",
"y  c #D88746",
"u  c #D78846",
"i  c #D88843",
"p  c #D98945",
"a  c #D98846",
"s  c #D98847",
"d  c #DA8947",
"f  c #DB8B46",
"g  c #DB8A47",
"h  c #DB8B47",
"j  c #DC8C47",
"k  c #D98946",
"l  c #D88748",
"z  c #D88748",
"x  c #D98848",
"c  c #D98849",
"v  c #DA8948",
"b  c #DA8949",
"n  c #DB8A48",
"m  c #DB8A49",
"M  c #DA894A",
"N  c #DB8A4A",
"B  c #DB8A4B",
"V  c #DC8B49",
"C  c #DC8B4A",
"Z  c #DD8D48",
"A  c #DE8E49",
"S  c #DD8C4A",
"D  c #DD8D4A",
"F  c #DD8C4B",
"G  c #DE8D4A",
"H  c #DE8D4B",
"J  c #DF8F4A",
"K  c #DF8E4B",
"L  c #DD8C4C",
"P  c #DE8D4C",
"I  c #DE8E4C",
"U  c #DF8E4C",
"Y  c #DF8E4D",
"T  c #DF8E4E",
"R  c #DC8B4A",
"E  c #DD904E",
"W  c #E08F4C",
"Q  c #E08F4D",
"!  c #E18E4E",
"~  c #E08F4E",
"^  c #E18F4E",
"/  c #E28F4E",
"(  c #E08F4E",
")  c #E0904A",
"_  c #E0904B",
"`  c #E0904C",
"'  c #E0904D",
"]  c #E2924D",
"[  c #E1904E",
"{  c #E1904F",
"}  c #E2914F",
"|  c #E2924E",
" . c #E3934F",
".. c #E3944E",
"X. c #E4944F",
"o. c #E1914F",
"O. c #E08F50",
"+. c #E19050",
"@. c #E19051",
"#. c #E29150",
"$. c #E29151",
"%. c #E39250",
"&. c #E39251",
"*. c #E39252",
"=. c #E39253",
"-. c #E49351",
";. c #E49352",
":. c #E49353",
">. c #E59550",
",. c #E49451",
"<. c #E59452",
"1. c #E59552",
"2. c #E59453",
"3. c #E69552",
"4. c #E69553",
"5. c #E69554",
"6. c #E79654",
"7. c #E79655",
"8. c #E69556",
"9. c #E59452",
"0. c #E89755",
"q. c #E89656",
"w. c #E89756",
"e. c #E89755",
"r. c #E49A57",
"t. c #E89855",
"y. c #E99855",
"u. c #E99856",
"i. c #E99857",
"p. c #EA9957",
"a. c #E99855",
"s. c #E89758",
"d. c #EA9958",
"f. c #EB9A58",
"g. c #EB9A59",
"h. c #EC9B59",
"j. c #EC9B5A",
"k. c #ED9C5A",
"l. c #EE9D5B",
"z. c #EF9E5E",
"x. c #EB9A59",
/* pixels */
"~ = @   $ #.F $ + + * : * * * , V Y , $ + o a Y * * v = o + + 7 #.@ + * $ @ + @ $ 7 , 1 l v 1 @ X * *   $ = [ [ : $ o * 2.F * @ ",
"Y = * + $ 2.Y @ + + @ * * $ = 7 F e , = @ + , v * $ 1 7 @ @ @ * a @ @ 1 * + X $ * 7 e v 1 V Y $ + * $ @ + : [ F 7 $ + $ ~ Y @ + ",
"+ = * 7 * * 7 * + + @ + o +   + 7 * * : : 7 : 7 * $ * 7 1 e v $ + = 1 a , v a e @ o X + * Y #.= $ $ +   @ [ * o * * * * * , @ + ",
"$ * $ : * * * @ + o + + + @ : $ $ 1 e 1 * * = * 7 : * a v , v = @ 1 V , e v v a + + @ + - [ [ 7 * @ + + : #.* $ $ $ = : = * @ + ",
"e + @ * , Y : X o X o + + = h.F 7 w.6.6.7 * 7 * 7 7 * 1 Y F v Y 1 v V v a e a v + + * * $ 1 v = * * * , a a , i + + * : V 7 o X ",
"1 $ $ @ * Y 7 @ @ + @ @ @ 7 [ 1 1 Y Y #.* * 7 : 1 * + * e v v F e 1 1 a 1 1 1 e o   1 v * = v * * , v a 1 7 , , + + $ * a 1 @ @ ",
"* * * + @ F , * 7 * * * * * = 7 v 1 1 F = * * * , * + @ 7 1 e v e : = 1 v 7 7 1 $ * V Y 7 7 e 1 : Y -.e , : * * * * o + 1 e : = ",
"* : * + @ * : 7 1 , = * $ = v e e #.Y e , * * * * $ $ * : : : a v 7 * : 7 7 * 1 #.6.7 7 v 7 = 2.2.7 = * = * * $ * *   + : = * 1 ",
"* * $ + * * 7 7 e 1 * = 1 a v = 7 #.a * 1 7 * * * 7 1 1 = $ * 7 7 7 * * * = $ $ #.#.7 7 1 * $ Y #.7 * * * $ : : * $ @ $ = * 7 Y ",
"$   o * * * 7 v g.#.$ e u.v $ $ 7 : + + 1 , 7 7 7 Y 6.6.v 7 : : * * 7 : * : @ X $ * , 1 7 @ @ * * e F * = : * * o X @ * * : V w.",
"* = = * * e a 1 F F 7 a [ a 7 7 7 = $ + 7 , 7 : * e Y Y a 7 : = = = * * $ $ * , 7 7 * v v @ + * * 7 1 * : : * $ * * + : 1 7 1 ~ ",
", u.#.  * h.Y * + v -.[ V a 2.F 7 a = + = : : * o @ = = * 7 = * 7 7 * + o o 1 g.h.g.* 7 #.*   = : = : * = * $ : 6.F o $ 6.Y * * ",
"e F a * 7 #.a 7 , v ~ v 1 F u.Y , 1 * @ * * * * $ $ * = : : = = * * $ @ @ $ 1 Y F F , v O.$ + * $ = * * * : , F Y v * * Y F 7 7 ",
"6.7 1 h.F * * F g.[ = * a 2.2.[ V v e * * * * * * * : = = * : 7 $ * *   @ = * = * * -.z.6.$ + * $ * $ $ * 7 2.X.* 7 w.u.7 = Y 6.",
", + + , : $ 7 a F v , : * : : * * * = $ : F ) a 1 : * * = * 7 = @ a F * e Y = * $ * a Y v + + 1 F Y F Y a , a , + $ 7 : $ * v F ",
"* * * + @ = : * a v F a : + o + + o $ $ * a j v v 7 $ * * * * 7 1 Y F : 1 a 7 : * * * $ - @ @ F #.#.F [ -.e * * * * @ @ , , $ 1 ",
"1 2.w.e F ~ * @ #.w.[ Y , = * = : $ , v $ +   o : = o o + o + V w.1 * @   + $ 7 * * = $ - : * Y 1 : * = : 7 * : 2.2.a V F * @ -.",
", v v : = e 7 * V F F , * * : , a , V a @ + @ $ 7 : $ @ + + @ 7 v v , * + + * 7 $ $ * * v : + * = 7 * = * = $ $ F a * : a * $ v ",
"* * $   + = : * * $ * $ $ = v 2.u.k.F $ $ : : * * a F = + $ = +   V g.v $ + * 7 @ + * 1 #.*     + : * * $ * * $ = $ X o * * $ * ",
"1 * + + $ * * * : * * * * a ~ V v k.~ @ * : : 7 @ : 2.7 X * a * @ 2.u.*     * = + X , #.v @ + + o 7 * : * * , : $ $ $ $ * : = * ",
"7 X X * * $ * * : * * $ * v w.a , u.F $ , a , * $ a 6.e + : v , 7 Y [ * + + $ $ + @ F -.7 + + + + = : 7 : = a : o + $ * * * * = ",
": $ $ : : @ * 7 : 7 1 7 * 7 F , 7 ~ , * , , : * @ * : * @ 1 e 7 7 * * 1 V 1 7 7 1 v 1 1 7 * * = * 7 , F , * , 1 * * * * @ * 7 7 ",
"v -.6.#.6.[ 2.~ * = : = * * * * * * $ @ * + o + @ $ , 1 7 a e $ @ $ * = e 1 * = #.u.#.#.w.2.Y * @ * $ * $ * 7 v -.g.-.#.#.#.[ 1 ",
"* 7 e , e a e , : = = , v e : , F [ , : 1 * : $ = , 7 e 7 7 1 * @ v ~ * + @ $ : 1 1 1 a 1 v v @ + * * + + : 7 : 7 a 7 1 v a e = ",
"7 * * * $ @ @ 7 : * * v 6.v * V u.v 7 F F : : * a a $ $ : = * : 7 #.2.$     $ * * * * = = = = + + * $ + + 7 V a * * * $ + @ : = ",
"w., * 7 $ + @ : * = = v u.Y = F [ * , u.F * * * , 7 * : 7 = : * * ~ -.$ X + @ + $ * * * = = * @ o +   + @ : #.#.7 7 : $ o + * * ",
"v * @ * + $ = * @ $ + * : * @ : 1 , Y -., * : * 7 * * = : 7 7 = = [ #.$ + @ + + = , 7 1 1 1 v , : * * : : 7 a 1 * * @ $ * * = @ ",
"$ * * o X * 7 * + @ o o + X X + : a F 7 * * * * * * * * * * * 7 7 #.~ $ + + + @ 7 V a v a Y v 1 V v e e e 1 * * : $ + @ $ = * + ",
"* a 7 * : * 7 a $ * $ * 1 : * * : 7 : : 1 Y F F , e Y , * : = , a , = + o o @ * F Y * $ @ $ * * = e v e a v 7 * 1 1 7 * $ 7 e $ ",
"7 F 1 F V $ a 6., * = V w.F 7 : * * * * v u...2.: , u.a * : = 7 v $ X o +   * 7 2.#.@ X o X + * 7 1 F a v 1 7 7 1 v Y 1 * e #.= ",
"* , : , 7 @ V #.* o o * e : * : , 1 , * * , : 1 + : k.a $ = * $ * + + : * X * * 7 7 @ + @ @ @ 7 1 , a e , $ $ * : 7 1 : $ e #.@ ",
": * $ * * * F e +   o @ $ * * , V a V , * $ * : @ : 2.a $ : : @ X + $ 1 * X 7 = $ * $ + @ @ + 1 v 1 v e * + : * * $ * * * e Y @ ",
"[ $ o $ 7 * 7 : * , [ a * * : : * * 7 1 = * * 7 @ $ : $ + $ : $ + 7 1 7 @ X V Y , = @ X + + + Y -.v V 1 @ @ [ v + + * = = * 7 $ ",
", $ * a , * $ 7 ~ #.v 1 7 * = * + @ $ = * = * : $ * , , * * * 7 7 7 1 = * @ * * $ @ o X * * * v , $ $ @ @ * 1 1 $ $ 7 e 7 $ 7 a ",
"* * , 1 7 : * , w.Y $ $ * * = * + + o + @ = : * $ $ v Y a e * = 1 7 = * 7 : @ + o X o + * 1 , 7 * +     @ * * * 7 7 v e * $ 7 Y ",
"a F ~ * * 1 = = 1 7 7 - * * 7 , 7 1 = * $ = : : $ 7 #.V : 7 7 7 7 1 1 * 7 a 7 7 $ o + + @ @ $ * * + @ * $ $ e 7 F ~ 1 * * $ * : ",
"2.2.[ : * = = : : = = - = * * e v V , : * * : : : F 6.e * 1 v 1 = v F 7 1 e v 1 $ + + + + o + * * + @ 7 @ + l Y 6.#.= * : : : * ",
": @ + : * o : F 7 * * % + * * * * = $ $ * * * : e v , : , a v 1 * a v 1 v e , * +   + + + $ * F [ = * e e * 7 7 @ @ * $ @ : F , ",
"$ + $ : *   = #.* * 7 $ o @ * $ * = = $ : : * $ ~ ~ * , F e v , * : 1 1 v v 7 * @ + + + @ $ = -.w.7 7 Y v v * $ @ + * =   : 2., ",
": [ #.: $ X $ v * * * $ o + * * = : * * @ $ o o Y ~ * 7 F V e 7 = * 7 e V , @ + : v e 1 7 * 7 #.#.* * v e 7 $ * [ ~ 7 * + * V : ",
"i ~ V : * + * 1 7 : = $ + $ 1 : * * = 7 $ , $ + F V = : e a 1 7 1 : : 7 1 1 @ + 1 Y 1 , * $ 7 #.[ 7 = v v e 7 1 ~ ~ , * @ $ , : ",
"F : * a 7 $ * 7 1 a F l * 7 2.v * * 1 a 7 #., @ = * * : : = 7 , a : * * * , : * a e : 7 * * : v a = * 1 a a #.#.* * a 1 * * , , ",
") e , ~ a * = 7 7 7 a , * 1 w.v * $ , a V 2.[ , : * * : 7 * : 1 F 7 * 7 $ @ @ * v a * $ $ * * 7 e * * 1 1 7 #.s.= 7 #.Y 7 * * : ",
": [ u.-.v * * * $ + + o + * Y : +   * = e e ~ ~ e * X @ = = = 1 V = * 7 7 * o + [ -.* + o + + 7 a * 7 V 1 * * 1 Y 6.6.v 7 * @ + ",
"* $ @ * , $ @ + + o X + + $ v * X   + @ * @ % * e e X @ = : = , a * * 7 : 7 , 7 -.2.: $ $ $ * a v * : v 1 * * * @ $ , 1 * * + + ",
"$ + + * = : * + + + + @ + $ a * + + + $ + @ O + ~ e X @ 7 : * , a = * : * : V V V v e , , : 7 e 1 * = e , * $ $ @ $ * * 7 * + @ ",
"$ * * + * 6.F * = * * ; * : v $ o @ + = @ @ + + ~ e X @ 7 * * , v , * : * * Y [ , : F 2.[ 7 * : : * : v 1 * + @ * $ + * 6.[ * $ ",
"$ 7 : o $ 2.V * 7 7 * * * 7 F $ X + @ 7 @ @ @ + a ,   @ : * * , a e : * : : Y [ 7 = Y 2.t.7 $ = = $ * 7 7 * + $ 1 * + * ~ v : 7 ",
": #.#., * : = * v , * * = 7 Y *   X @ , : = 7 : : $ + @ * * * 1 a a a = 1 a v F a a v F 2.*   * * @ @ * = = $ * 6.2.* = 7 * 7 V ",
": F a = $ @ $ * v 1 = * * = 7 : * * * $ $ $ * $ * & * & $ = * : , , 7 * 7 , 1 a e e 1 , a = + * : + @ 7 7 7 * * Y Y * $ $ $ * v ",
"* : $ o o + o @ e 1 7 @ X + o e u.g.E * @ + + + & & u , * * $ * = o o * * * e v : * = $ * ~ 2.1 * = * e e , * * 7 * + + @   + , ",
"+ * $ + + X X * 1 7 7 $   + @ , V ~ 1 : : . * > & & u , * : : , 1 + o * = = , a * * : * * 1 F 7 $ + $ 7 e 1 * $ * $ @ + o + * , ",
"o + + + @ + @ , * $ 7 * + @ * = : 7 * u Y & < N & & u 7 * , a [ #.* + $ 7 , 1 a : * * $ + * : : * $ * $ * 7 $ @ o X + +   @ = $ ",
"@ o   o + + * 1 * 7 e 7 = - * : * * & u #.1 > & & & u , ; 1 a [ w.*   = ~ 6.w.2.V * o o $ v F : = 2.Y + @ 1 * $ + + @ +   @ 1 * ",
"7 $ + + + $ 1 1 * * 7 8 = 7 * = 7 7 * & R L > # + & E , & 7 ; F #.$ X * a Y Y V , * @ * : a e * * Y a + @ a a , * + + + @ 7 a * ",
"6.$ * o $ w.[ * @ + = 7 = 7 * 1 1 u , & @ . > r.& & L &   .   7 Y @ + 7 *   + + @ : , a a e 7 @ + * * @ + * #.6.: $ + * 2.~ * + ",
"1 7 $ @ * V a $ + X $ * * * @ 1 1 1 7 & & + > L ; & 1 7 $ * $ * 7 * $ 1 = $ * * @ * = : : V F * + * $ + @ 1 v v * * + * v e * + ",
"+ * * * * $ : * @ + + + + X o $ $ * $ * * 7 , & & * ; u v Y R $   7 [ V e a v e @ o + + * #.6., * $ +   * g.+   * 7 * * 7 = * @ ",
"$ $ @ * 7 7 : + +   o + + $ e = 7 Y v a * * * ; 7 7 & , a 1 u * $ l [ 1 1 1 v V @ o @ $ : F ~ 7 * $ $ * 7 ~ : * @ $ * 7 7 * $ + ",
"1 o $ * : [ =   o     o o 7 g.7 a g.2.F * ; & * v 1 ; , v a v V V l e a v 1 e a @ + * : * 7 e 7 : * 7 Y e 7 Y v + + $ 7 1 * X + ",
"7 @ * $ * Y 7 @ $ $ + + $ : e 7 7 1 Y #.7 7 ; * , : $ & 7 1 a V v 7 7 e v e V e o o e a $ 7 e : = a V a 1 1 1 : * $ @ * Y 1 $ * ",
"* : $ o @ , , * 7 7 * * : * : 7 7 7 v #.: * * * 7 * @ $ * * 7 v V 7 * 7 1 7 7 , $ = [ F : 7 e e a V F , 7 7 * * * $ + + , 7 : 1 ",
"= * * + + * 7 7 1 1 $ $ * = v 1 1 #.V e 7 7 * * = $ * * = = = 1 Y 7 $ * : * * , [ [ = = a * $ ~ -.7 * : = * * = 7 * @ @ * = = 1 "
};
