/* XPM */
static const char *player[] = {
/* columns rows colors chars-per-pixel */
"64 64 237 2 ",
"   c #040101",
".  c #0C0302",
"X  c #0C090B",
"o  c #0C0805",
"O  c #140302",
"+  c #1A0201",
"@  c #150903",
"#  c #1C0B05",
"$  c #140B0B",
"%  c #1C0D0C",
"&  c #18060A",
"*  c #1C110D",
"=  c #12110D",
"-  c #141412",
";  c #1C1514",
":  c #1C1916",
">  c #1C1C1A",
",  c #18101A",
"<  c #100C0F",
"1  c #260B06",
"2  c #2B140D",
"3  c #23110C",
"4  c #37190A",
"5  c #231313",
"6  c #231A15",
"7  c #2B1A13",
"8  c #231C1A",
"9  c #2C1D1D",
"0  c #291619",
"q  c #3C1D15",
"w  c #331C1B",
"e  c #361818",
"r  c #1B251E",
"t  c #29231D",
"y  c #332214",
"u  c #39241B",
"i  c #241E22",
"p  c #2D1D22",
"a  c #1C2128",
"s  c #2D2423",
"d  c #2D2429",
"f  c #2A2928",
"g  c #332424",
"h  c #3B2323",
"j  c #3A2B23",
"k  c #332B2B",
"l  c #382B2B",
"z  c #372629",
"x  c #39352B",
"c  c #2F2D31",
"v  c #3D3735",
"b  c #2E2E2C",
"n  c #441B0A",
"m  c #4C1A17",
"M  c #54240B",
"N  c #422313",
"B  c #492819",
"V  c #5A2B15",
"C  c #532716",
"Z  c #48321C",
"A  c #55331B",
"S  c #58321E",
"D  c #45200E",
"F  c #62321B",
"G  c #622A16",
"H  c #431F2A",
"J  c #452B25",
"K  c #482B2D",
"L  c #462A29",
"P  c #4A3229",
"I  c #45362B",
"U  c #593629",
"Y  c #4A2B33",
"T  c #453233",
"R  c #4A3333",
"E  c #473A38",
"W  c #543A3A",
"Q  c #563638",
"!  c #592A27",
"~  c #653827",
"^  c #623C36",
"/  c #7A3C39",
"(  c #722E28",
")  c #3F4036",
"_  c #474238",
"`  c #5C4338",
"'  c #5D432A",
"]  c #76452A",
"[  c #674B3A",
"{  c #734B34",
"}  c #7C5333",
"|  c #78543D",
" . c #72492F",
".. c #72603D",
"X. c #553A42",
"o. c #633A47",
"O. c #5E4A4A",
"+. c #44484B",
"@. c #694945",
"#. c #7A4A43",
"$. c #74534A",
"%. c #7B5847",
"&. c #765C57",
"*. c #6A5251",
"=. c #7B645A",
"-. c #6D6859",
";. c #775C63",
":. c #884D1B",
">. c #A95D1F",
",. c #874D27",
"<. c #8C5425",
"1. c #8C562C",
"2. c #8E5C2A",
"3. c #885424",
"4. c #935521",
"5. c #965926",
"6. c #925B2C",
"7. c #9A5C2B",
"8. c #9A5927",
"9. c #825433",
"0. c #895938",
"q. c #945E32",
"w. c #975D3B",
"e. c #8D4D2C",
"r. c #A25F2B",
"t. c #9F602B",
"y. c #986338",
"u. c #8D6334",
"i. c #AA652D",
"p. c #A4632B",
"a. c #BD6D2C",
"s. c #BD732D",
"d. c #A56736",
"f. c #B16B35",
"g. c #BD7434",
"h. c #BC743B",
"j. c #B9753A",
"k. c #C06F2D",
"l. c #C2712E",
"z. c #C9752D",
"x. c #D37D2E",
"c. c #C57433",
"v. c #C87735",
"b. c #C67936",
"n. c #CA7936",
"m. c #C2763A",
"M. c #CA7739",
"N. c #C67A3B",
"B. c #CD7C3B",
"V. c #D17E3D",
"C. c #D27C35",
"Z. c #C06F30",
"A. c #875A48",
"S. c #835A55",
"D. c #824B42",
"F. c #886745",
"G. c #966541",
"H. c #866B5D",
"J. c #936758",
"K. c #997D5D",
"L. c #A46B44",
"P. c #A97446",
"I. c #B97849",
"U. c #B97D51",
"Y. c #AC6B50",
"T. c #926961",
"R. c #8A746B",
"E. c #957364",
"W. c #8B6E6E",
"Q. c #C37B43",
"!. c #CD7E41",
"~. c #C57F4A",
"^. c #CF7E4A",
"/. c #D17F41",
"(. c #CE823D",
"). c #CF8035",
"_. c #D2813E",
"`. c #D9823D",
"'. c #D58439",
"]. c #B88359",
"[. c #97827B",
"{. c #AC8878",
"}. c #B3856E",
"|. c #CD8243",
" X c #CD844A",
".X c #C9864B",
"XX c #D78645",
"oX c #D68544",
"OX c #D48342",
"+X c #D88745",
"@X c #D98645",
"#X c #D58946",
"$X c #D98847",
"%X c #DA8947",
"&X c #DA8946",
"*X c #D38449",
"=X c #D5894B",
"-X c #DA8948",
";X c #DC8B4A",
":X c #DE8D4C",
">X c #DC8B4A",
",X c #D98748",
"<X c #DC914E",
"1X c #D7904B",
"2X c #C58553",
"3X c #CF8D5B",
"4X c #CB8854",
"5X c #D38B53",
"6X c #D38D5A",
"7X c #DA8B52",
"8X c #D79357",
"9X c #E08F4D",
"0X c #E2914E",
"qX c #E49352",
"wX c #E49459",
"eX c #CE9368",
"rX c #D69962",
"tX c #C88D6A",
"yX c #D6A774",
"uX c #B5948B",
"iX c #B79C95",
"pX c #A8928B",
"aX c #CD918A",
"sX c #C7A797",
"dX c #CEB5AB",
"fX c #EDB9AF",
"gX c #F1B9AD",
"hX c #ECBBB4",
"jX c #FEE49F",
"kX c #F7C8AE",
"lX c #FACAB9",
"zX c #F0CFB3",
"xX c #FFE3B4",
"cX c #EDC587",
"vX c #FBD9C6",
"bX c #FFDFD0",
"nX c #FFFEF9",
/* pixels */
">X:XV.%X_._.-XB.c.+X_.B.c.n.B.B.v.n.v.%XXXOX-XOXB.XX-XB.c._.B.v.%X0X_.-XXX_.%XB.c.+X_.B.c.v.B.B.n.n.v.oXXXOX-XOXB.XX>XOXv.B.V.B.",
"-X>XB.-X%X-X:X_.v._.XXOXv.%XOXV._.oXv._.OX_.XXOX_.OXOXB.B.>XOXB.oX:X_.-X%X>X-XOXB._.XXXXv.XXoXB.OXXXB.B.OXOXoXOXB.V.oXB.B.-XXXOX",
"B.oXB.%XoX%XqXqX_.B.n.v.c.>XB.v.OX:XqXOXc.B.B.oXXXB._.v._.>Xc.c.B.XXV.%XOX%XqXqXOXB.B.B.v.-XB.c.OX:XqXXXc.B.B.OX+XB.V.v.B.>Xc.v.",
"OXOXOX+XB.B.oX+XB.c.a.a.k.oXv.k.v.B.B.XXv.n.V.OXXXB.V.B.%XqXv.v.V.%XB.%XB.B.oXXXB.v.l.a.c.OXn.a.v.n.B.-Xv.v._.OX+XB.V.B.oXqXv.v.",
"_._.OX+XB.v.c.v.%XB.v.v.v.+Xn.c.B.c.a.XXB.B.V.XXOXB.B.%X9X%X:XXXV.OXB.XXB.n.c.v.+XB.v.B.v.XXB.l.v.v.a.XXOXv.B.OXOXV.B.%X9X%X:X%X",
"n.B.n.OXv.B.XXv.>XOXOXOXOX:Xc.a.B.B.v.+Xv.B._.oX+XOXV.-X-XoXqX%Xc.v.v.OXn.n.XXn.-XoXOXV.OX>Xn.l.B.B.v.oXn.B.B.OX%XOXB.-X:XOXqX0X",
"V.B.n.oX_.oX:Xn.v.B.%XB.B.V.V.V.B.B.n.n.n.C.V.OXoX/.OX#XXXoXXX-XB.B.v.OXV.OX:XB.c.B.%XB.B._._._.B.B.B.B.n.B.B.B.OXB.OX+X-XXXoX:X",
"OXn.n.XXOXv.v.a.l.n.OXB.l.v.+X>X#Xb.B./.+X`._.%XB.c.B.OXoXV.C.V.-Xv.v.XXXXv.v.c.c.v.OXB.l.c.XX:XXXv.B.B.oXOXB.-XoXc.B.V.oXB.B.B.",
"OXOX_.n._.c.l.c.k.V.OXOXv.V.V.B.#X1XOXn.OX(.oXqX#Xl.@XqX>X!.c.v.OXOXV.n.OXc.a.l.l.OX_.OXn.B.B.n.OX>XXXb.OXOXOXqX>Xc.XX:X:XB.v.v.",
"B._.%Xc.oXXXc.l.OXOXB.+X_.B.OXoX(.#X(.N.8X4XQ.7XoXc.=X,XOXB.B.#X`.V.-Xc.oX+Xv.c.B.oXv.XXOXV.OXoXB.|.|.b.OX(.v.-X-Xc.XX-XXXB.B.oX",
"_.c.v.c.-X-XB.n.:XB.l.B.v.v.OXXX(.g.>XI.F C L. Xx.C.B.z.z.C.V.>X+Xv.m.c.%X&XB.v.:X`.z.n.B.n.OXXXB.c.OXOXOXB.b.B.B.B.OXc.v.B.OX+X",
"%Xn.c.B.XXc.B.V.B.B.c.c.l.v.B.oXOX(.OXy.O g U d.(.`.:X8X4Xh.m.+X0Xv.c.n.-Xz.B.|._.n.l.Z.c.v.B.OX_.V.B.V._.XX:X_.B.-XXX-XOXl.c.OX",
"oXB.OX+X+XOXv._.%Xv.c.c.v.>X+XqX0XV.V.U.{ I I A P.rX1.~ U V y.5XOX!.6X5XXX`.c.B.+Xn.z.c.v.-X+X:XqXV.V.+XB.OX:X>X%X+X+X-XOXc.OXB.",
"XX+X%XOXV.V.B.c.OXB._.B.B.`.oX%X>XV.V.|.2X} Z y Z U 1 & p w B G.yXd.~ y.=XV.B.c._.V.B.V.B.OXXX+X>XOXB.OXn.n.oX-XoXV.oXXXOXOX:XoX",
"XX:XV.V.B.B.v.v.n.XX>XB.oXoXOX>X_.OXB.x.'.4XF.j d X X T X.Q e q ` 2 * P 1.|.n.v.n.`.+XB.XXXX_.-X_.oXV.B.OXXXB.OXOXB.V.B.B.:X_.OX",
"v._.oXB.B.n.v.B.OX-X:XoXqXOX_.B.c.#X(.'.0XrX%.@ , , & ! / / Q % : b +.k A 3XN.n.`.&X0XOXqXXX_._.c.oXOXV.0X:XOXB.B.B.B.B.n._.XXB.",
"v.V.B._.B.%X:Xv.9XOXoX0X%XqX9X@Xc.B.V.M.Q.] e v k $ 1 / ( C q O 8 c i $ 2 G.wXv.;X`.OXqX-XqX:X-Xv.B.B.v.n.V.B.OXOXn.a.B.qX:XXX:X",
"v._._.B.-X:XV.:XB.>X:X_.XXqX&X@Xn._.OXV.^.,.q k k $ & J m e 0 0 0 - 5 9 @ S 5X-X).@XqXV.oXqX:X-XV.B._.B.B._._.V._.n.v.OXB.OXqX:X",
"OX:X:X:XoXOXn.B.B.OX9X%X_.B.c.n.B.XX:X=X!.4X] ` 3 % w 7 T E T W E p 5 E p U 6XB.).V.>X>XOXn.v.n.B.OX:X-XB.n.B.B.-X%XOXXXB.V.OXV.",
"OXoXB.B.B.OXqXXX+XB.qX0XB.B._.`.oXv.c.V.v.g.].J.B J W W k p K K h 0 5 6 7 P A..X@XN.9X0XOXB.OXOX+Xv.l.B.n.c.l.OX0XV.l.c.B.B.B.OX",
"c.v.V.B._.B.B.c._.B.V.B.B.XX0XqX(.n.!.V.&XQ.9.q L W Y @.e K &.Y 5 R T @ g g + d._.B.!.V.OX+X0XqXOXB.OXB.-XB.v.v._.0Xv.v.v.c.OX:X",
"c.v.OX_._.OXc.B.B.n.B.B.B.0XoXqX_.XXOXV.0XQ.n h X.Q o.W.H X.W.h O.iXpXW g d @ P.V.B.(.OXB.qX-XqXoXOXOXB.:XB.B.oXXX:Xc.v.v.v.9XB.",
"B.v.OXB._.%X>X:X+X%XOXOXB.OXOX_.n.B.n.c.(.2XD h X.Y @.;.9 E R O.[.R.sX=.3 d o ].9X@X(.V.B.V._.oXB.B.v.v.B.oXXXOXn.B.OX_.OX0X:X%X",
"v.c.v.c.V.XXXXXXoXOXB._.:XB.-X-XoXoXB.B.OX2XN g W Q Q g . 7 3 R.uXP E.$.5 d @ U.@X'.'.B.:X_.%X:XOXOXB.B.OXOXOXB._.:Xc.v.V.oXOXOX",
"v.l.c.c.+X:Xn.v.c.n.B._.qXOX:XOXqXOXn.`.`.2XN g X.K h Q W J + R.sXT.aX$.5 d + P.v.v.V.B.qXOX-XoX0X+XB.XXOXB._.B.%X0Xa.l.c.B.B.B.",
"%XoXoX%XoX_.v.c.B.B.c.l.v.c.B.oXoXB.B.C.V.2X4 9 v g O {.fX%.q =.R.5 @.&.$ u G L.^.B.c.l.c.c.B.oX-X_.B.B._.B.V.B.+X:Xc.l.v.%XXX+X",
"B.oX-X-XOXB.%XoX_.+XB.B.:X/.B._.n.0X0X@X:X4X] 2 8 s $ @.J.^ R P dXR.H.[.@ 0.6X X|.-X_.B.-X_.B._.B.-XqX+X:XXXB.XXoXv.l.c.OX9Xv.v.",
"v.-X-XOXv.B.OX_.OX>Xv.c.oX_.oX+XOXOX#XB.0X*X3X~ 1 8 s $ . w L iXnXuXiXR.B 3X(.).'.:Xv.c.OXOXOX%X_._.+Xv.9X>XB.B.c.v.v.c.OXV.l.c.",
"OX9XoXB.V.%Xc.B.OXOXB.+XV.B._.OXOXB.!.B.`.n.N.U.~ 2 9 k $ g R =.dXfXfXS.V 8Xz.B._.`.B.+XV.V.OX_.OXB.B.v.OXn.B.v.c.XXn.B.-Xn.c.l.",
"XXB.c.v._._.B.XXB.OX0X_.B.B.c.c.v.!.OXv.'.@X).|.6X] 1 0 X p ` # H.gXY.( ,. XB.+XV.V.0XoXV.B.v.l.c.B.B.v._.oXOXV.oXB.V.v.c.c.c.B.",
"B.n.c.n.B.:X:XOXV.V._.B.B.V.oXoXV.B.B.n.0X=XoX'._.4X .# & z W 3 Q uX^ V  X=X0X'.V.B.XXB.B.V.OX+XB.B.B.v.9X%XOXXXOXOX_.XXB.c.c.c.",
"OX%XB.XXOXV.n.B.n.XXB.B.v.B.V.`.B.B.B.%X#XOX-X`.`.5X].P h X.K K 2   # 9.=XB.n.n.v.XXOXV.c.n._.OXV.B.V.XX%X_.-XOX_.>X%XoXB.k.l.c.",
":X9X_.-XOXB.XXn.l.%XB.v.l.n.B.V.n.B.v.;X_.oX>X'.B.U.{ Q Y L 3 @.R.6 Z eX*XB.%X_.m.;XOXB.l.n.B.V.B.B.v.%XoXOX>X_.B.oX:X_.c._._.B.",
"-X-XV.-X-X-X-XV.n.OXOX_.B.-XoX_.OX-XB./._.OXOX|..X] u l 0 @ u y H.H.C y.2X5X Xj.f.f.Q.=XN.|. X|.OX`.B.B._._.OXOXOX_.XXB.B.-XOXV.",
"V.+XOXXXOX>X0X0XOXB.v.v.c.>XB.c.XX:XqXOXc.B.B.OX3XC . $ k I x E y | A.V 1.d.p.p.5.4.4.p.d.d.8.r.|.:X0X%Xc.n.B.OXXXB.V.v.B.:Xc.c.",
"OX+XOXXXV.B.OX+XB.v.l.c.l.oXv.l.n.B.B.+Xc.B.V.`.6XC t _ E l x E _ y %.$.4 w.6.6.6.<.:.:.:.6.<.:.i.m.n.+Xn.v.V.OXXXB.OXB.+XqXv.v.",
"OXOXoX%XB.v.c.v.:Xn.v.n.v.%Xv.l.n.v.a.+XB.n.V.`.3XC t v E d d v v x _ z q w.,.3.y.6.<.6.3.q.1.:.i.g.a.oXB.v.B.OXoXB.B.+XqXXX:X-X",
"B.B.n.OXv.B.+XB.-XOXOXB.V.-Xv.a.V.v.v.oXm.n.V.oXeXB 7 E E d > ; s x :   7 } y.3.7.6.6.6.2.y.1.:.p.h.B.XXn.v.V.OX-XOXB.%X:XOXqX:X",
"_.B.v.OXB.XX-Xn.v.B.:XB.v.B._.OXB.n.B.c.B.B.n.|.U.S A ' I : o X X .   8 u A ..9.4.<.q.6.1.6.6.5.j.!.B.v.v.V.B._.oX_._.+X%XoXOX%X",
"-XB.B.+XoXn.v.l.c.v.OXB.l.l.:XqXOXc.n.b.XXOX_..XM F.yX].' ; > t i ; o @.aX#.O ] e.3.6.1.,.:.5.f. Xg.m.v.oXOXV.OXB.c.B.OX+XB.B._.",
"V._.OXn.OXc.c.c.a._._.OXv.B.B.n.-X>X|.n.XXOX+XrXD }.jXcXzX*.$ x s k ; ~ aX#..  .e.2.2.6.1.7.f.g._.1X|.B.OXOXOXqX>Xc.XXqX:XB.v.v.",
"V.V.%Xc.%X+Xv.v.OX_.v.oXV.B.oXoX(.#X|.b.=XB.v.6XD {.xXkXvXO.= x - 0 6 U }.@.1 ] q.2.4.5.d.~.|.`.'.OX|.b.XXB.v.+X>Xc.oXoXXX_.n.OX",
"OXv.c.v.-XXXB.n.:XB.k.v.n.v.OXoXB.c.XX_.OXB.n. XM E.sXdX&.  > f t $ 8 t # P | e.y.4.:.i.h.N.B.@XC.c.|.(.OXV.v.n.B.B.OXv.n.B.V.+X",
">XB.l.B.XXv.B.B.B.n.c.c.c.v.B.oXOXV.B.C.!.XX9X!.].U % 5 : = - f k = ; 8 6 | 1.7.5.7.i.m.s.n.B.OXoXOXB.B.B.+X>X(.B.-X-X:XXXc.c.OX",
"_.B.+X+XXX_.c.B.+Xv.c.c.v.:XXX:X9XB.V.@X|.OX@X;XtXB $ 8 X : f h J * ; i . Z 3.4.t.f.m.l.c.9X%X:XqX/.V.oXV.OX%X+X+XXX>X-X_.c.XXOX",
"oX-X>XOX_.V.B.c.oXOXB.V.B.OXOX%X-XB.B.OXN.B.oX7XV 7 d i * . % T.hX@.% i   N u.,.5.8.g._.B.`.oX%X-X/.V.OXn.v.OX-XoXB.oXXXoXOX%XOX",
"XX-XV.B.B.B.v.n.B.XX:XB.XXOXOX:XV._.V.OX+X+X!.U.N 8 c . &.P $.fXbX=.  > $ u | 9.<.8.Q.B.OX%XOX:X_.OXOXV.XXXXB.OXoXB._.n.B.>X_.OX",
"v.OXXXOXB.B.n.n.OX%X:XoX0XXX_.B.v.XXOXOX0X-X4XV u b a . S.U S.lXvXH.o r s * 1 { q.8.p.h.qX+X_._.c.OXOXV.9X:XV.B.V.B.B.n.n.OXOXB.",
"v.V.B.B.B.-X:Xn.qXOXoX9X%XqX>X+Xv.B.B.v.C.!.].u s b a . S.~ A.kXzXzX-.o f : O { y.7.i.5X>X0X:X+XB.n.B.v.n._.B.B.B.n.l._.qX:XXX>X",
"n.OXOXV.-X:XOX0XB.-X9XB.XXqX+X+XV.V.OX_.C. XC j : - f O #.}.U J.kXbXR.o b 8 + 0.d.!.wXOXXXqX>X+XV.V.OX_.B.B.B.B.V.B.v.OXB.OXqX9X",
"XX:X>X-XOX_.B.B.B.OX9X-XV.n.c.v.C.@X-X%XB.I.n g 6 . $ O D.aX! $.lXlXzX&.. j [ } t.|.qX>XB.M.M.v.V.oX-XXXB.n.n.B.-XXXV.oXB.V.OXB.",
"V.OXB.B.B.XX0XOXOXB.qX:XV.B.OX_.`.c.c._.v.I.n + %.K.4 + S.tXU $ W.vXaX^ $.[ 2 9.d.g.<XqXOX_.OXOXXXv.c.V.B.c.l._.>X_.c.v.B.n.B.OX",
"l.v.B.B.B.B.v.c.B._.B.n.V.>XqXqXV.B.!./.>XN.d.w.I.].4 % z J u X * R.H.&.R.2 O  .t.b.B.B.B.-X9XqXOXB.OXV.-Xn.v.n.V.qXc.v.B.c.oX-X",
"k.v.OXV.OX_.c.n.B.B.B.B.B.9X-XqXV.oX*X/.0Xn.=X X>.t.n % 8 > s -   6 g j j # + 0.~.B.B.V.B.9XXXqXOXV.%Xn.:XB.B.+X+X:Xc.B.B.v.0XB.",
"_.v.OXB._.%X>X-X-X%X_._.B.C.OXOXn.B.m.v.'.'.%XN.a.Q.Y.N O @ @ O . % i * . y { y.5X-X_.B.B.B._.oXn.v.v.c._.OXoXOXv.V.OXB.OX9X9X:X",
"B.c.v.l.V.OXOXOXOX_.B._.0X`.:X:X@X%X!.V.oX_.OXB.-X=XI.L.9.} } 9.} B . u } u.I.Q.OXOXB.B.0XOX%X9XoXXXB._.OXB.V.B.oX>Xl.n.B.OXOXoX",
"v.c.v.c.%X:XB.B.v.n.B.B.:X_.>XoX0XoX|.oXB.B.V.V.&X&Xa.m.~. X=X|.6X] 1 F 6XqXB.C.z.n.B.V.9XOX-XOX0X+XB.oXOXB.B.B.%X0Xl.c.c.B.B.V.",
"%X+X%X-XoXB.B.c.B.B.c.c.c.l.B.oXXXV.B.B.B.B.B.B.>X&Xl.k.n.%X@X@X@X X~. XOX`.V.z.n.n.z.c.v.l.B.%X>X_._.B.C.B._.B.@X:Xc.l.v.-XXXXX",
"n.OX+X-XoXB.+XXX_.-XB.B.:XV.B._.B.:XqXXX:XoXB.oX`.z.l.c.>X>Xc.z.c.XX7X>X#XB.-XXXOX>XB.n.:X_.B._.B.:XwX+X>X+XB.oX_.c.c.c.OX:Xv.v.",
"B.%X-XXXv._.OX_.OX-Xc.v.OX_.XX%XOXB.OXn.qXOXB.n.l.v.v.v.oXC.l.s.c.%X-X%Xv.B.OX|.|.:Xb.c._.B._.+XOXB.oXv.>X%XB.B.c.v.n.c.OXV.l.l.",
"OX:XOXn.V.%Xc.B.V._.B.+XB.B._.OXOXB.B.n.+XB.n.v.c.OXb.V.&Xn.c.s.B.:X@X).v.=Xv.B.B.`.B.@XV.B._._.oXB.B.B.OXB.V.v.v.oXn.B.%Xv.k.c.",
"OXn.c.v.OXB.B.-XB.OX0XOXB._.c.k.v.V._.n.OX%XB.OXoXB.B.v.c.c.c._.#XB.z.z.'.OXB.@XC.'.0XoXB.V.v.k.c.B.V.v.OX%XOXOXXX_.B.v.c.c.c.B.",
"n.n.c.n.B.:X:X_.B._._.V.B.B.oXoXB.B.B.B.9XoXoXOXOXOXOX-XB.l.c.c.c.B.c.B.n.>X0X_.V.C.OXB.OXB._.oXB.B.V.B.>XXXV.XX_.OXOXXXB.c.l.v.",
"XX%XV.%XOX_.n.B.n.>XB.B.v.B.V.OXB.B.B.-X+XOX-XOXOX%X+XXXn.c.l.c.OX-XB.+X_.V.B.B.v.+X_.B.v.B.OXOXB.B.B.XX%XoX+XOX_.%X-X+XB.c.k.c."
};
