/* XPM */
static const char *wall[] = {
/* columns rows colors chars-per-pixel */
"64 63 118 2 ",
"   c #853705",
".  c #8A3C0B",
"X  c #893F10",
"o  c #8A400F",
"O  c #8E4413",
"+  c #8F4518",
"@  c #914616",
"#  c #924817",
"$  c #9D4D17",
"%  c #914718",
"&  c #954B1B",
"*  c #994E1D",
"=  c #9B501F",
"-  c #A14F1A",
";  c #A2521E",
":  c #974D20",
">  c #994F20",
",  c #9D5322",
"<  c #9F5824",
"1  c #9F5528",
"2  c #A15625",
"3  c #A35827",
"4  c #AA5A26",
"5  c #A15728",
"6  c #A55B2A",
"7  c #A95E2D",
"8  c #A65C30",
"9  c #A95F30",
"0  c #AB602F",
"q  c #B3632C",
"w  c #B8672F",
"e  c #AE6433",
"r  c #AD6334",
"t  c #AD6232",
"y  c #B16330",
"u  c #B16530",
"i  c #B06431",
"p  c #B36631",
"a  c #B06432",
"s  c #B46531",
"d  c #B46733",
"f  c #B36534",
"g  c #B26535",
"h  c #B06635",
"j  c #B46535",
"k  c #B46634",
"l  c #B46734",
"z  c #B56737",
"x  c #B16635",
"c  c #B66833",
"v  c #B66934",
"b  c #B66935",
"n  c #B66B34",
"m  c #B76A35",
"M  c #B46837",
"N  c #B76936",
"B  c #B66B37",
"V  c #B26837",
"C  c #B86830",
"Z  c #B96833",
"A  c #B86B35",
"S  c #BB6B35",
"D  c #B96935",
"F  c #B16738",
"G  c #B46938",
"H  c #B56B3B",
"J  c #B76A3A",
"K  c #B66B3A",
"L  c #B56B3A",
"P  c #B86A39",
"I  c #BC6939",
"U  c #B86E38",
"Y  c #BA6D3A",
"T  c #BB6C3B",
"R  c #BB6E3B",
"E  c #BF6E39",
"W  c #BE6C3A",
"Q  c #BF6C3A",
"!  c #BF6C3C",
"~  c #BF6F3E",
"^  c #B96D3C",
"/  c #B97039",
"(  c #BC713E",
")  c #C27139",
"_  c #C2713A",
"`  c #C2733F",
"'  c #C2773D",
"]  c #C5743C",
"[  c #C6753E",
"{  c #C7763E",
"}  c #C7763F",
"|  c #C9783F",
" . c #B96F40",
".. c #BF7440",
"X. c #BC7141",
"o. c #C17541",
"O. c #C07743",
"+. c #C57741",
"@. c #C47443",
"#. c #C47A45",
"$. c #C97841",
"%. c #C97943",
"&. c #C97A47",
"*. c #CA7B47",
"=. c #C97D46",
"-. c #CC7E45",
";. c #C67A49",
":. c #CA7F49",
">. c #CB7F49",
",. c #CD7F4E",
"<. c #CD814D",
"1. c #D0824D",
"2. c #D1864D",
"3. c #D28454",
"4. c #D48753",
"5. c #DF9158",
"6. c #DC915A",
"7. c #E09562",
/* pixels */
"; w [ _ | [ [ w w _ -.' = = = 0 U q 4 k x x P s c s b 0 b 6.1.E E I R R J t , * , 6 6 , , = * 3 t , * : : & , , 1 , 5 , # , , = ",
"- $ 4 w _ $.[ q ; Z 5.2.$ = 3 0 B R +.0 6 4 4 2 0 S S 2 4 >.c $ - 2 2 2 7 k 6 * & @ & , x x & , r 2 , , , , 1 8 9 , 9 7 , , , , ",
"; $ ; 4 Z E $.S q q +.=./ 7 = 7 4 k <.7 3 3 2 3 s b b 4 4 >.s ; 2 * $ $ 3 J 7 , & * * & 6 0 & * 7 , , , 3 5 1 6 5 > 5 5 , , 2 4 ",
"; ; $ $ 4 s ` *.*.2 7 o.7.o.* & @ 7 3.t , 3 6 2 7 k b 2 2 #.( s 7 3 = & 2 t 7 6 6 7 6 @ , * # * , , , , 8 9 8 5 , & , , 5 , 6 7 ",
"; 0 s k R R 0 0 7 7 2 6 s 7 3 , , 3 7 2 2 2 2 , 3 7 0 7 4 , 2 7 7 7 6 3 t J 2 & = , 6 * & # O , J , * 3 5 3 3 > % # % & * & * , ",
"$ s ` k P k 3 2 * 7 , * , 2 , 2 2 2 3 , 2 2 2 2 2 6 7 0 7 # , 0 7 7 7 7 t ^ * O 2 2 , , @ @ * 3 G 2 * > , , 5 > & & % O # , 2 , ",
"2 s b 4 4 7 6 6 2 , 2 3 7 2 @ 2 2 6 x 2 2 2 2 0 4 4 7 7 7 7 0 7 7 7 7 7 7 t & @ 7 2 , 2 , , 6 7 7 0 , @ , 3 t > & , # O & t H 6 ",
"4 q 7 7 4 7 4 3 2 , 2 4 2 * @ , * 2 x , , , 2 t 2 2 4 6 7 7 4 4 7 7 7 7 7 2 6 7 7 2 , = 0 V 6 6 2 3 , * & , r , * , & # , 6 7 6 ",
"$ 7 q 4 4 3 4 3 2 , 2 2 , $ @ 6 2 = 0 2 2 , 4 6 , * 2 2 6 t 6 2 6 6 7 4 6 4 t x 7 = 4 t 7 7 6 3 , , , , @ * 7 6 3 3 & & , 3 6 2 ",
"; s S 3 4 4 4 6 2 2 2 2 2 $ @ t J , 2 2 2 , 2 , , , , , , 6 6 , , , , , 4 6 7 7 7 , 3 ^ 2 * , 2 2 , , , @ * , , 2 , @ @ , 6 0 2 ",
"; 4 3 2 2 2 2 2 , 2 , , , 6 7 6 6 , 2 6 7 2 2 7 e x 6 , , 2 , 2 2 2 , @ & , 6 7 * # * 7 7 7 3 , , , * O & , , 3 7 t , , V 3 , , ",
"2 2 2 2 2 2 2 2 > > , 2 2 2 7 2 = 2 , 6 7 2 2 2 0 t 6 , , , , , , * * * , 3 6 7 3 O & , 2 7 , , , , = * * 3 2 2 7 V 6 6 ^ 7 2 , ",
", 3 t 0 7 t 7 3 , , 2 , 2 , @ * 2 2 2 2 2 2 , @ * , , , 2 , , , * O * x ^ ^ 2 2 e # # , , 2 , , , = t G # * X.6 * 2 V V 6 t J 7 ",
"= , 7 7 3 7 6 2 2 2 , 2 2 * @ * 2 , 2 , * , , * * , , , 2 , , , & # = 7 t 7 7 t V # & , , , , = * 7 e t 6 6 0 3 7 7 t 0 6 x ^ 3 ",
", , = = , , , 2 2 2 2 2 2 & & , 2 2 , , 2 2 2 2 , , 2 , , , , , @ , 2 * = = e ^ x # @ 2 , , , , , V 6 * x e * 3 t V 2 , 7 e x 7 ",
"V 7 , , , , , 4 6 3 2 * * , , 4 7 x 2 2 x x 0 7 , , 2 , , , 7 x 2 7 e , , , 2 6 6 & , e x V x t 3 3 , & & * 2 2 , 0 6 3 , * & = ",
"7 , 3 6 7 6 , $ & & = = = , , 2 2 6 , , , & , 7 6 , , = , 6 6 7 * * 3 , , , 2 , * * 2 7 3 6 6 6 3 2 7 t 3 6 0 * * t ^ e , * * * ",
"7 , 6 7 7 6 2 $ @ # , 6 4 , , , 2 , 2 * @ @ * 6 2 , , , 3 7 6 2 & O @ , , , , , 3 , , 7 , , , , , , t J 7 3 7 * * t J 7 , 2 6 3 ",
"^ 9 , 5 2 , , , , 2 6 t 7 4 2 2 , 2 = & , 3 , 2 , , , , , , 7 ^ 6 & @ , * * & , V # O * , , , , , * , , # & , , , , , , , 2 7 x ",
"s 6 , 2 , , , 7 0 3 6 7 t 3 , , , 2 , * 3 2 , , , , , , , , 7 J , O # , * @ 6 t 7 & # & , , , > , 3 , * & , , , , , , 3 = 7 t 6 ",
"4 2 , , = , , t J 7 6 6 7 3 , , , , , 3 t 3 , 2 , , , , 3 , 7 V * # = , , O t J * @ @ # , 5 5 , , 6 > @ * , * * , , 2 , , t R 2 ",
"2 4 6 4 6 6 , 7 t , * * * & = * & = , , * * * O , 3 3 3 , * , 2 6 7 6 = 3 t t t 7 6 6 > 5 3 6 , , 5 2 7 7 2 2 6 7 , 3 , = 2 2 2 ",
"* 3 7 6 6 6 3 0 e 2 , , 6 , 2 , 6 3 @ , & * * @ 3 7 7 0 , * 2 2 , * , * 6 J G x x ^ 7 & , * , , > 5 t x e e x e e 2 * , 6 2 * 6 ",
", 3 6 , 2 , @ * 2 2 , 6 J 7 2 x ^ t 7 t 7 2 3 7 6 , , , , * 0 ^ * O & , , * , , = , , * * * , > # , 2 * = , , , , 2 * 6 ( 7 2 J ",
"* 7 X.R e 3 # * , = , 7 X.0 2 V t 6 G 7 , , , 7 3 , , = , * 7 ^ # & * @ # O O O @ O # , # % % O % 6 9 , 2 , @ * , 2 , 6 ^ 7 2 J ",
"t t t 6 2 , # = , * * * 6 = & 7 7 3 t 3 = , 2 3 , = , , , * t ^ & @ * O O O * * , * , 6 , , * > , 3 7 , , * * , , * * * 6 , * 7 ",
";.x # @ O @ O * , # O O # O O = 3 7 7 2 , 3 2 , , , , , , , 7 G , O O # @ # , 3 6 2 3 r t 7 , 3 9 2 , , & # , 6 = # @ O & @ & , ",
"x 6 2 4 4 2 , t x 2 , 2 x 6 , , , , 2 6 G J e , 7 7 , , , 7 2 * * @ & * 6 e * @ * @ * 3 6 7 6 7 t 7 3 7 6 , , t e , = 3 x 6 = , ",
"9 , 6 7 7 3 , t ^ , * 2 x 7 , , , , , 3 V V t * 0 t , , , 3 , O * O # , 7 G * O & O * , 3 0 7 7 , 3 6 7 7 6 2 x ^ , * 3 V 6 , 2 ",
"3 , , , 5 , = t J & O # , , , 6 7 t 6 2 2 , = O 7 t , , , # O # 7 , # = , , # % # % * 6 t 0 7 3 O , 3 , , , , x x # o & , * , 6 ",
"# 7 6 # , , , 7 7 * 3 7 , = , 3 , 7 7 , , , , , 6 , # , , O * 2 6 # * t 3 , & % % O > x t 3 7 , O 6 3 # , , , 7 3 = 6 7 , , , 3 ",
"O t 7 & = , , , , , V x 2 , , , , 2 3 , , , 2 , , = # = = # 2 7 , # * J x , & + # % , F t 2 , * & t , O , 2 , * * 3 J e , , , = ",
"= 6 4 2 6 3 , , , t 7 = , , , * * # * , , , , # , 0 , , 2 6 6 2 = 2 * * & % % & , 5 3 5 > * # * , 6 * , 7 2 2 , 6 7 2 , , , * & ",
"4 4 x x 6 2 * , = 6 , * , , , 2 3 , , , , , , & 6 t 3 3 7 2 2 7 , 3 6 3 , # % & > & > 5 , = * , = 3 0 x 7 , , , , 3 , , 3 , 2 2 ",
"7 4 x a 3 2 , 6 6 , , 2 , , , 6 0 6 , * , , , 6 t 6 2 6 3 = , 7 2 7 t t 2 * : : & O # 5 , 3 2 , 3 6 t t 2 , * , 2 = , , , , , 6 ",
"3 3 & @ 2 2 & 6 x 6 , , & , , , , , = * 3 , 3 J t , 7 t 3 2 6 6 7 7 6 3 * O % & * & , 7 , 6 0 7 7 2 & O * , @ 7 x 2 , * O , 2 , ",
"4 2 3 3 2 * O 3 x 3 , * @ * = , , , , * 2 * , ^ 7 3 0 7 6 , , 7 7 7 3 * * * 5 , * , 6 t 2 , 6 3 , 2 2 6 , * O 6 t , 2 * @ = , , ",
"4 2 k P 4 = @ 2 6 , 2 * O * , , , , , * , # , ^ 7 , 7 7 3 , , , 3 7 6 O # 2 7 7 3 9 9 9 5 , , , , , G ^ 3 * # , 6 , , * @ * , , ",
"2 s 4 2 7 6 , , 3 6 t 7 > 7 e 2 , 7 7 3 x , * 2 2 , 2 , 6 7 3 , , , 1 * , 6 2 3 7 t t 9 t 7 , , 2 t 7 3 3 , , , 3 5 6 2 > t x , ",
"( s 7 6 x 9 , , = 3 6 3 , 9 ^ , , 7 6 9 J t t * * , , , 3 7 6 , , * , , 3 t , , , , 5 6 9 3 2 , , t 7 6 e 3 , > * , 6 , , r ^ > ",
"4.7 3 x x r , > O O O O * 7 J * # , , 2 7 9 e 6 * & , , 2 7 3 , , , , , 7 H , O & % * 5 2 , , , , , 7 e F t * > # O % % , 6 H * ",
"; 2 $ & 2 2 > , * # % # & , 2 # % O # * # % > ^ 6 # , , , 7 3 , , , , 6 e ^ 7 > 2 , 5 7 3 5 6 5 3 , * # * , , , , # O % & * , O ",
"0 = $ * & , 7 5 , * % # * , , & % O % * % % * ( 6 * 3 , , 7 6 , , , , 9 t 7 t t 7 , 5 5 , , 5 5 , > * * # , e 3 > O % # , > * # ",
"R 2 # 2 @ >  .7 * & O * 2 3 , * & # # > @ O , J 2 # , = 2 7 6 2 , , 3 7 6 , r G F 2 , , , , , , , * > , % , ^ 7 , * O & , , , * ",
"R 4 0 J 2 , 6 * & 9 9 6 , r F * O O & * , * , 7 * & , = , 7 7 7 , , 3 6 3 6 t e J * # , , , , , , , t F , , 3 * * e 6 6 , t G & ",
"0 2 4 t , * , @ # x t 3 > 8 t , , , * * , , * * = , , , , 7 7 7 2 , , 2 , 3 7 3 t , * , > , 3 , , > 7 e , , > # * e t 5 , 3 t , ",
"2 @   . O O % % % 6 5 , * X % e  .x , & O O @ @ , 6 , , , 2 * # * % O , , , 5 , 5 ^ e , , 6 7 9 9 * O % # * > # # 7 5 & % O @ F ",
"s b 0 6 * O O # , , , > O # , 3 t 6 3 = O * , @ = 3 , , 6 t , @ * * , t 6 , 3 , & 7 7 2 * * , 6 t , O # # * & * * 3 3 > O # , 7 ",
"7 b ( 0 , * * , 6 2 3 , & , , * * * 3 2 , , * & , 3 , 6 t G 7 & # = 7 ^ t 2 , & * , , 2 2 , * , 7 , * * , > * 3 3 , 6 , * , 2 , ",
"= 2 2 2 6 3 3 7 7 , 7 7 , , , , , , , 7 7 & @ O , 7 , 6 t ^ 7 # * , , J t * & # 2 t 7 , V ^ & * 7 3 , , 3 , , 7 7 5 7 3 , , , , ",
"= 2 4 6 2 5 3 3 , & , 5 , , 2 3 6 3 , & & , 3 O , 3 # @ * t , # & * = , , , 6 6 7 t , # , 7 # & , , , , 6 7 6 6 , * , , 5 5 3 7 ",
"0 2 4 4 , 5 2 , = & , , , , , 2 6 6 2 # # 3 , & , 6 * & * , , = * 3 , * * = , 6 6 e 6 & & & & , 2 , , , 6 t 7 , > * * > , > , 6 ",
"<.4 $ 4 , , , > & * * & & # @ * , , = , , , 2 = = 7 7 7 2 @ , t 6 6 7 7 2 O O & , x x , * O O 3 ^ 2 * , , , , * & & O & # # # , ",
"( 7 & = , , 6 , & & # & # , 7 , 2 t 6 , , , 3 3 , 6 7 7 3 , 3 7 7 7 3 7 2 O # * , x 7 , , * , 6 V 3 * * , , , * # & # * # , 7 , ",
"R s * & , 2 t 2 & * % & # 6 J 2 2 ( ^ , , , , t 2 , 7 7 0 7 7 7 7 7 6 e , O , 2 , 0 7 * 3 7 7 7 7 7 * & , 3 t , & * % * # 7 G 3 ",
"R 4 , , & , 7 3 , 3 & & , , , t 3 2 V , , , , 0 , * , 3 6 7 3 , 6 7 7 t = @ 7 x 3 3 6 , t G t 6 , , , * # , t 5 , , * > , 2 , 2 ",
"3 2 3 2 @ & 5 5 , 5 @ % , 3 7 6 6 t 7 2 = = 2 2 = * , , 3 0 2 , 2 3 2 6 7 e 0 3 3 3 6 e 7 3 3 , , , , , @ * , , , , & * , 3 7 2 ",
"7 2 $ * * * 2 2 5 7 $ * 7 6 t 2 6 J , 6 6 2 , 2 3 2 , , 2 7 3 , , , , * 6 V 7 2 2 = , e 3 = = , , 2 , = & # , , 2 3 & * 3 7 6 , ",
"( 7 $ @ 2 2 * 3 r G 6 2 J 7 * , , * & 2 0 6 4 6 x e 7 3 , 2 , , 2 2 , O @ , 3 7 , O & , 7 7 , , , , & # , , * 2 x V , 2 J 3 , = ",
"0 4 2 7 $ , 9 6 6 7 t t s s 7 7 7 2 & , 6 2 , & , 7 3 2 , , , , * * * 7 7 t 3 3 0 # & , 2 3 = , , = , 3 * , 7 6 3 7 t 7 e t 7 3 ",
"4 ; 7 P @ , R 9 > 2 s b 7 t R t 0 7 * = 2 2 , @ * , , , 2 , , , @ O * G ^ x 6 2 t & & , , , , , = , x x & , X.6 # , J J 6 V J t ",
"R R 0 3 x 0 6 7 7 x 7 2 t x ^ 0 7 7 2 , 2 , , , , , , , , , , , # * , , , , t J J # # , , = , , * 0 e 3 x e , 6 0 e 2 2 6 e J 7 ",
"q c 4 * s t 2 2 7 x 6 > 7 t t 7 6 2 , 2 6 7 6 6 , , , , , , 2 7 & , 6 , , = 7 e 7 @ # 6 3 3 2 2 3 e 6 = t 7 = 2 7 x , , 7 t 7 6 "
};
